<svg xmlns="http://www.w3.org/2000/svg" width="32" height="32" viewBox="0 0 32 32"><g><g><g><path fill="#d87753" d="M29.212 20.034a.796.796 0 0 0-.789.804v7.14c-.001 1.333-1.059 2.412-2.364 2.413H3.94c-1.305-.001-2.363-1.08-2.365-2.412V7.02c.002-1.332 1.06-2.411 2.365-2.413h6.999c.435 0 .788-.36.788-.804A.797.797 0 0 0 10.94 3H3.941C1.766 3.003.002 4.801 0 7.021V27.98c.002 2.22 1.766 4.018 3.941 4.021H26.06c2.175-.003 3.939-1.801 3.941-4.021v-7.141a.796.796 0 0 0-.788-.804z"/></g><g><path fill="#d87753" d="M29.02 6.666l-3.685-3.692.83-.832a1.954 1.954 0 0 1 2.767 0l.919.92a1.965 1.965 0 0 1 0 2.772zM12.04 17.01l2.95 2.95-4.08 1.13zm.738-1.48L24.226 4.083l3.693 3.691-11.45 11.448zm17.27-14.497a3.529 3.529 0 0 0-4.99 0L11.07 15.021a.784.784 0 0 0-.2.345l-1.84 6.64a.784.784 0 0 0 .964.966l6.642-1.84a.784.784 0 0 0 .345-.201L30.968 6.943a3.532 3.532 0 0 0 0-4.99z"/></g></g></g></svg>