<svg xmlns="http://www.w3.org/2000/svg" width="33" height="29" viewBox="0 0 33 29"><g><g><g><path fill="#d87753" d="M25.336 14.27V11.37a.725.725 0 0 0-.61-.714c-.621-.1-2.277-.259-4.234.425-2.087.73-3.894 2.166-5.381 4.276-.004-.694.062-1.386.196-2.066.442-2.225 1.562-4.093 3.33-5.553a.666.666 0 0 0 .045-.04c.05-.047 1.894-1.707 5.922-1.678h.006c.4 0 .726-.324.726-.724V2.464l5.917 5.873zM25.122.21a.728.728 0 0 0-1.238.513v3.86c-3.92.156-5.882 1.776-6.182 2.045a10.96 10.96 0 0 0-3.818 6.375c-.246 1.209-.29 2.45-.13 3.673v.004l.005.033.155.884a.725.725 0 0 0 1.337.248l.462-.768c1.42-2.353 3.189-3.913 5.26-4.636a7.645 7.645 0 0 1 2.911-.426v3.998a.727.727 0 0 0 1.24.51l7.67-7.683a.722.722 0 0 0-.003-1.023z"/></g><g><path fill="#d87753" d="M30.56 21.609a.728.728 0 0 0-.731.723v3.055c-.002 1.197-.984 2.167-2.197 2.168H3.662c-1.214-.001-2.196-.971-2.197-2.168V8.164c0-1.197.983-2.167 2.196-2.168h5.065a.728.728 0 0 0 .732-.723c0-.4-.328-.723-.732-.723H3.66C1.641 4.552.002 6.17 0 8.164v17.223C.002 27.382 1.64 28.999 3.661 29h23.97c2.022-.002 3.66-1.62 3.662-3.614v-3.055c0-.4-.328-.723-.732-.723z"/></g></g></g></svg>