<svg xmlns="http://www.w3.org/2000/svg" width="33" height="33" viewBox="0 0 33 33"><g><g><g><path fill="#d87753" d="M31.592 23.45H23.1c-2.108 0-3.859-1.758-3.859-3.859s1.758-3.859 3.859-3.859h8.492zm-1.468 7.166c0 .559-.424 1.05-.983 1.05H2.317c-.56 0-.984-.491-.984-1.05V8.566c0-.558.425-1.05.984-1.05h26.75c.559 0 .983.492.983 1.05v5.685H23.1c-2.95 0-5.267 2.316-5.267 5.266a5.257 5.257 0 0 0 5.267 5.267h7.024zM26.467 1.333c.35.068.7.493.7 1.053v3.8H7.793zM32.3 14.251h-.842V8.567c0-1.334-1.05-2.385-2.317-2.385h-.633V2.384c0-1.333-.983-2.384-2.175-2.384h-.142L2.175 6.176c-.006 0-.02.006-.027.006C.963 6.277 0 7.294 0 8.567v22.049C0 31.949 1.05 33 2.317 33H29.14a2.363 2.363 0 0 0 2.384-2.384v-5.832h.775c.424 0 .7-.283.7-.7v-9.126a.705.705 0 0 0-.7-.707z"/></g></g></g></svg>