<svg xmlns="http://www.w3.org/2000/svg" width="37" height="26" viewBox="0 0 37 26"><g><g><g><path fill="#d87753" d="M37 8.715l-.06 11.448a.75.75 0 0 1-.754.748h-1.53a.757.757 0 0 1-.753-.755c0-.416.34-.755.754-.755h.783l.053-10.339-4.912-4.078h-6.073v14.432h1.515c.414 0 .753.34.753.755a.757.757 0 0 1-.753.755h-9.2a.757.757 0 0 1-.753-.755c0-.416.34-.755.754-.755h6.178V1.51H5.312v4.773a.757.757 0 0 1-.754.755.757.757 0 0 1-.753-.755V.755c0-.415.339-.755.753-.755h19.19c.414 0 .753.34.753.755v2.719h6.344c.18 0 .346.06.482.174l5.394 4.478a.798.798 0 0 1 .279.589zm-33.934-.32c0-.418.34-.76.753-.76h9.13c.414 0 .753.342.753.76s-.339.76-.753.76H3.82a.759.759 0 0 1-.753-.76zm-1.529 3.42c0-.417.339-.752.753-.752h.007l9.13.054a.75.75 0 0 1 .746.767.763.763 0 0 1-.76.753l-9.13-.054a.75.75 0 0 1-.746-.767zm8.355 4.25H.753a.759.759 0 0 1-.753-.76c0-.418.339-.76.753-.76h9.14c.414 0 .753.342.753.76 0 .426-.34.76-.754.76zM7.59 20.18c0 .416-.34.757-.755.757H4.56a.758.758 0 0 1-.755-.757v-2.77c0-.417.34-.757.755-.757.416 0 .756.34.756.757v2.013h1.518c.415 0 .755.34.755.757zm6.106 1.701c0-1.04-.827-1.883-1.849-1.883-1.037 0-1.909.859-1.909 1.883s.872 1.883 1.91 1.883c1.021 0 1.848-.844 1.848-1.883zm1.516 0c0 1.87-1.506 3.393-3.36 3.393a3.428 3.428 0 0 1-2.41-.995 3.339 3.339 0 0 1-1.01-2.398c0-.905.361-1.75 1.01-2.398a3.415 3.415 0 0 1 2.41-.995c1.854 0 3.36 1.523 3.36 3.393zm16.912-11.776l-1.804-1.63h-2.812v4.689h4.616zm1.268-.89a.756.756 0 0 1 .249.558v4.146a.757.757 0 0 1-.754.755h-6.132a.757.757 0 0 1-.754-.755V7.725c0-.415.34-.755.754-.755h3.865a.73.73 0 0 1 .504.197zM32.093 21.88c0-1.04-.827-1.883-1.849-1.883-1.037 0-1.908.859-1.908 1.883s.871 1.883 1.908 1.883c1.022 0 1.849-.844 1.849-1.883zm1.517 0c0 1.87-1.507 3.393-3.36 3.393a3.428 3.428 0 0 1-2.411-.995 3.339 3.339 0 0 1-1.01-2.398c0-.905.362-1.75 1.01-2.398a3.415 3.415 0 0 1 2.41-.995c1.854 0 3.36 1.523 3.36 3.393z"/></g></g></g></svg>