<svg xmlns="http://www.w3.org/2000/svg" width="64" height="76" viewBox="0 0 64 76"><g><g><g><path fill="#932226" d="M32.5 76L19 52h27z"/></g><g><path fill="#932226" d="M32 0c17.67 0 32 14.3 32 32S49.67 64 32 64 0 49.7 0 32 14.33 0 32 0z"/></g><g><path fill="#fff" d="M32 7c13.807 0 25 11.193 25 25S45.807 57 32 57 7 45.807 7 32 18.193 7 32 7z"/></g><g><path fill="#980c10" d="M37.66 37l-4.43 8h8.85l4.42-8zm-5.91-10l4.43-8h-8.85l-4.43 8z"/></g><g><path fill="#932226" d="M27.33 33.5h7.38l1.96 3.5-2.46 3.5H23.39L21.43 44 17 36.5l4.92-8h8.36zm5.41-6l4.42-7.5L47 36h-9.34z"/></g></g></g></svg>