<svg xmlns="http://www.w3.org/2000/svg" width="15" height="16" viewBox="0 0 15 16"><g><g clip-path="url(#clip-35B6A0BB-D340-44A5-9459-384D9CD35FA2)"><path fill="#fff" d="M15.052 12.627a.803.803 0 0 1-.224.678l-2.12 2.237a1.2 1.2 0 0 1-.374.288c-.154.08-.306.13-.455.153l-.095.009a2.043 2.043 0 0 1-.208.008c-.202 0-.528-.037-.98-.11-.452-.074-1.004-.254-1.658-.543-.654-.288-1.395-.72-2.224-1.296-.829-.576-1.71-1.367-2.646-2.373a18.282 18.282 0 0 1-1.85-2.237 16.113 16.113 0 0 1-1.18-1.975A11 11 0 0 1 .37 5.822a9.178 9.178 0 0 1-.303-1.271 4.457 4.457 0 0 1-.063-.84c.01-.203.016-.316.016-.338.02-.158.069-.32.143-.483a1.27 1.27 0 0 1 .271-.398L2.553.237A.683.683 0 0 1 3.063 0c.139 0 .26.042.367.127.106.085.197.19.271.314l1.706 3.44a.87.87 0 0 1 .08.594 1.079 1.079 0 0 1-.271.542l-.782.83a.288.288 0 0 0-.055.11.442.442 0 0 0-.024.128c.042.237.138.508.287.813.127.271.324.602.59.992.265.39.643.839 1.131 1.347.479.52.904.924 1.276 1.212.372.288.683.5.932.636.25.135.441.217.574.245l.2.043a.361.361 0 0 0 .103-.026.262.262 0 0 0 .104-.059l.908-.983a.944.944 0 0 1 .67-.271c.18 0 .324.034.43.102h.016l3.077 1.932c.223.147.356.333.399.56z"/></g></g></svg>