<svg xmlns="http://www.w3.org/2000/svg" width="23" height="13" viewBox="0 0 23 13"><g><g clip-path="url(#clip-2AE1BA76-D4DB-8009-9389-FD5239B52DD1)"><path fill="#8a1a1f" d="M19.795 8.266c.763.744 1.568 1.444 2.252 2.263.303.364.589.74.808 1.162.31.6.029 1.26-.51 1.297l-3.35-.002c-.865.072-1.554-.276-2.134-.866-.464-.472-.894-.974-1.34-1.462a3.171 3.171 0 0 0-.603-.535c-.457-.297-.854-.206-1.116.27-.266.485-.326 1.022-.352 1.562-.036.788-.275.995-1.067 1.031-1.694.08-3.302-.176-4.795-1.03-1.316-.752-2.337-1.814-3.226-3.016C2.632 6.598 1.307 4.026.116 1.38-.152.786.044.466.702.455a91.048 91.048 0 0 1 3.28-.002c.445.007.74.261.91.68.592 1.453 1.316 2.835 2.224 4.115.242.341.489.682.84.922.388.266.684.178.867-.254.116-.274.167-.57.193-.863.087-1.01.098-2.019-.054-3.025C8.87 1.399 8.515.992 7.887.873c-.32-.06-.272-.18-.117-.362C8.039.196 8.292 0 8.797 0h3.787c.596.118.729.385.81.984l.003 4.201c-.006.232.116.92.535 1.074.334.11.555-.158.756-.37.907-.961 1.554-2.097 2.132-3.273a21.35 21.35 0 0 0 .69-1.591c.16-.398.408-.594.857-.586l3.644.004c.108 0 .218.001.322.02.615.104.783.368.593.967-.299.94-.88 1.722-1.449 2.51-.608.84-1.258 1.65-1.86 2.495-.554.772-.51 1.16.178 1.831z"/></g></g></svg>