<svg xmlns="http://www.w3.org/2000/svg" width="42" height="52" viewBox="0 0 42 52"><g><g><g><g><path fill="#d87753" d="M32.17 21.755h-2.582a.797.797 0 0 0-.784.588 6.317 6.317 0 0 1-.857 1.955.73.73 0 0 0 .115.94l1.826 1.726-1.365 1.291-1.827-1.726a.84.84 0 0 0-.994-.109 7.116 7.116 0 0 1-2.068.81.771.771 0 0 0-.622.741v2.442H21.08V27.97a.771.771 0 0 0-.622-.74 7.107 7.107 0 0 1-2.069-.81.841.841 0 0 0-.994.108l-1.826 1.726-1.366-1.29 1.827-1.727a.73.73 0 0 0 .114-.94 6.319 6.319 0 0 1-.856-1.955.797.797 0 0 0-.784-.588h-2.583V19.93h2.583a.797.797 0 0 0 .784-.588c.171-.693.46-1.351.856-1.955a.73.73 0 0 0-.114-.94l-1.827-1.726 1.366-1.291 1.826 1.726a.84.84 0 0 0 .994.109 7.11 7.11 0 0 1 2.069-.81.771.771 0 0 0 .622-.741v-2.442h1.93v2.442c0 .354.258.66.623.741.733.162 1.43.435 2.068.81.318.186.73.141.994-.109l1.827-1.726 1.365 1.29-1.826 1.727a.73.73 0 0 0-.115.94 6.32 6.32 0 0 1 .857 1.955c.085.344.41.588.784.588h2.583zm.47-3.348h-2.439a7.78 7.78 0 0 0-.566-1.294l1.724-1.63c.215-.203.334-.474.334-.762 0-.289-.119-.56-.334-.763l-2.03-1.918a1.19 1.19 0 0 0-1.613 0l-1.725 1.63a8.758 8.758 0 0 0-1.369-.536v-2.305c0-.595-.512-1.079-1.141-1.079h-2.87c-.63 0-1.141.484-1.141 1.079v2.305c-.473.14-.93.32-1.37.536l-1.724-1.63a1.19 1.19 0 0 0-1.613 0l-2.03 1.918a1.042 1.042 0 0 0-.334.763c0 .288.119.559.334.762l1.725 1.63a7.774 7.774 0 0 0-.567 1.294h-2.439c-.63 0-1.141.484-1.141 1.08v2.712c0 .595.512 1.078 1.141 1.078h2.439c.149.447.338.88.567 1.295l-1.725 1.63a1.039 1.039 0 0 0 0 1.525l2.03 1.918a1.19 1.19 0 0 0 1.613 0l1.725-1.63a8.76 8.76 0 0 0 1.369.536v2.305c0 .595.512 1.079 1.141 1.079h2.87c.63 0 1.141-.484 1.141-1.079v-2.305c.473-.14.93-.32 1.37-.536l1.724 1.63a1.19 1.19 0 0 0 1.614 0l2.029-1.918c.215-.204.334-.475.334-.763 0-.288-.119-.559-.334-.762l-1.725-1.63c.229-.415.418-.848.567-1.295h2.439c.63 0 1.141-.483 1.141-1.078v-2.713c0-.595-.512-1.079-1.14-1.079z"/></g><g><path fill="#d87753" d="M22.128 23.336c-1.501 0-2.723-1.152-2.723-2.568 0-1.416 1.222-2.568 2.723-2.568 1.5 0 2.722 1.152 2.722 2.568 0 1.416-1.222 2.568-2.722 2.568zm-.006-6.666c-2.39 0-4.335 1.838-4.335 4.098s1.945 4.098 4.335 4.098c2.39 0 4.336-1.839 4.336-4.098 0-2.26-1.945-4.098-4.336-4.098z"/></g><g><path fill="#d87753" d="M3.52 20.07H.815c-.45 0-.815.348-.815.777 0 .43.365.777.815.777H3.52c.45 0 .815-.348.815-.777 0-.429-.365-.777-.815-.777z"/></g><g><path fill="#d87753" d="M43.283 20.07H40.58c-.45 0-.815.348-.815.777 0 .43.364.777.815.777h2.704c.45 0 .816-.348.816-.777 0-.429-.365-.777-.816-.777z"/></g><g><path fill="#d87753" d="M9.486 32.719a.824.824 0 0 0-1.12 0l-1.855 1.754a.72.72 0 0 0 0 1.058.824.824 0 0 0 1.119 0l1.856-1.754a.72.72 0 0 0 0-1.058z"/></g><g><path fill="#d87753" d="M37.594 6.149a.824.824 0 0 0-1.119 0L34.62 7.903a.72.72 0 0 0 0 1.058c.31.292.81.292 1.12 0l1.855-1.754a.72.72 0 0 0 0-1.058z"/></g><g><path fill="#d87753" d="M22.053 0c-.454 0-.822.345-.822.77v2.557c0 .426.368.77.822.77.454 0 .822-.344.822-.77V.771c0-.426-.368-.771-.822-.771z"/></g><g><path fill="#d87753" d="M37.594 34.473l-1.856-1.754a.824.824 0 0 0-1.119 0 .72.72 0 0 0 0 1.058l1.856 1.754c.31.292.81.292 1.12 0a.72.72 0 0 0 0-1.058z"/></g><g><path fill="#d87753" d="M9.486 7.903L7.63 6.15a.824.824 0 0 0-1.12 0 .72.72 0 0 0 0 1.058L8.368 8.96a.824.824 0 0 0 1.119 0 .72.72 0 0 0 0-1.058z"/></g><g><path fill="#d87753" d="M38.267 18.93c-.873-7.008-6.774-12.564-14.184-13.414-.444-.052-.85.247-.903.665-.055.418.262.799.706.85 6.73.772 11.981 5.738 12.77 12.076.048.389.399.675.804.675a.89.89 0 0 0 .096-.005c.444-.05.763-.429.71-.847z"/></g><g><path fill="#d87753" d="M28.64 42.966c0 .248-.221.457-.484.457H15.924c-.263 0-.485-.21-.485-.457v-1.087c0-.248.222-.457.485-.457h12.232c.263 0 .485.21.485.457zm0 3.525c0 .248-.221.458-.484.458H15.924c-.263 0-.485-.21-.485-.458v-1.086c0-.248.222-.457.485-.457h12.232c.263 0 .485.209.485.457zm-4.654 3.705c0 .151-.135.279-.294.279h-3.325c-.16 0-.294-.128-.294-.279v-1.723h3.913zm13.427-28.394c-.443-.053-.846.243-.902.66-.55 4.105-3.002 7.727-6.728 9.937-1.606.953-2.564 2.583-2.564 4.361v3.137H16.85v-3.206c0-1.722-.952-3.349-2.486-4.246-4.335-2.535-6.924-6.921-6.924-11.732 0-6.947 5.507-12.83 12.81-13.684.443-.052.757-.433.702-.85-.055-.418-.458-.715-.9-.663-8.07.944-14.226 7.5-14.225 15.197 0 2.656.73 5.272 2.114 7.567 1.341 2.225 3.269 4.113 5.574 5.462 1.062.62 1.721 1.75 1.721 2.949v3.317c-.82.27-1.412 1.006-1.412 1.871v1.087c0 .46.169.883.448 1.22-.28.336-.448.759-.448 1.219v1.087c0 1.092.941 1.981 2.098 1.981h2.536v1.723c0 .994.856 1.803 1.908 1.803h3.335c1.052 0 1.907-.809 1.907-1.803v-1.723h2.537c1.157 0 2.097-.889 2.097-1.981v-1.087c0-.46-.168-.883-.447-1.22.28-.336.447-.76.447-1.22V41.88c0-.866-.59-1.601-1.411-1.87V36.76c0-1.25.676-2.398 1.809-3.07 4.136-2.454 6.86-6.476 7.47-11.036.057-.418-.256-.799-.698-.852z"/></g></g></g></g></svg>