<svg xmlns="http://www.w3.org/2000/svg" width="40" height="52" viewBox="0 0 40 52"><g><g><g><g><path fill="#d87753" d="M26.7 6.476a15.031 15.031 0 0 0-17.314 2.75C4.064 14.496 3.531 22.9 8.147 28.774a.83.83 0 0 0 1.161.143.814.814 0 0 0 .145-1.15c-4.104-5.222-3.63-12.695 1.104-17.382a13.367 13.367 0 0 1 15.397-2.446.831.831 0 0 0 1.112-.362.815.815 0 0 0-.366-1.101z"/></g><g><path fill="#d87753" d="M33.309 13.02a.832.832 0 0 0-1.112-.362.816.816 0 0 0-.366 1.101c2.594 5.086 1.6 11.212-2.471 15.244-4.734 4.687-12.28 5.157-17.554 1.093a.833.833 0 0 0-1.162.143.814.814 0 0 0 .145 1.15 14.966 14.966 0 0 0 9.156 3.106c3.85 0 7.687-1.463 10.585-4.333 4.579-4.534 5.696-11.423 2.779-17.142z"/></g><g><path fill="#d87753" d="M31.177 9.904a15.09 15.09 0 0 0-1.321-1.309.833.833 0 0 0-1.168.072.814.814 0 0 0 .071 1.156 13.533 13.533 0 0 1 1.177 1.166.83.83 0 0 0 1.169.071.814.814 0 0 0 .072-1.156z"/></g><g><path fill="#d87753" d="M38.079 20.313l-1.09 1.769a2.772 2.772 0 0 0-.377 1.886l.324 2.043c.069.43-.11.855-.465 1.11l-1.687 1.216c-.54.39-.925.958-1.082 1.601l-.492 2.01a1.154 1.154 0 0 1-.857.85l-2.03.486a2.823 2.823 0 0 0-1.617 1.072l-1.228 1.67a1.163 1.163 0 0 1-1.121.46l-2.062-.32a2.845 2.845 0 0 0-1.906.374l-1.785 1.078a1.17 1.17 0 0 1-1.212 0l-1.786-1.079a2.842 2.842 0 0 0-1.905-.374l-2.063.322a1.164 1.164 0 0 1-1.122-.46l-1.227-1.672a2.823 2.823 0 0 0-1.617-1.071l-2.03-.487a1.154 1.154 0 0 1-.858-.849l-.491-2.01a2.793 2.793 0 0 0-1.082-1.601L3.524 27.12a1.142 1.142 0 0 1-.465-1.11l.325-2.043a2.772 2.772 0 0 0-.378-1.887l-1.089-1.768a1.138 1.138 0 0 1 0-1.2l1.089-1.768a2.772 2.772 0 0 0 .378-1.887l-.325-2.042c-.068-.43.11-.855.465-1.11l1.688-1.216c.54-.39.924-.958 1.082-1.601l.491-2.011c.103-.422.432-.747.857-.849l2.031-.487a2.823 2.823 0 0 0 1.617-1.07L12.517 3.4a1.164 1.164 0 0 1 1.122-.461l2.062.321c.66.103 1.336-.03 1.906-.374l1.785-1.078a1.17 1.17 0 0 1 1.211 0l1.786 1.078c.57.344 1.247.477 1.906.375l2.062-.322c.434-.067.864.11 1.122.46l1.228 1.672c.393.535.967.915 1.616 1.07l2.031.488c.426.102.754.427.857.849l.492 2.01a2.793 2.793 0 0 0 1.081 1.601l1.688 1.216c.355.255.533.681.465 1.11l-.325 2.042c-.104.653.03 1.323.378 1.887l1.089 1.769c.228.37.228.83 0 1.2zM35.56 46.62l-3.66-.433a.83.83 0 0 0-.776.345l-2.108 2.994L23.7 37.782c.111-.015.225-.015.337.003l2.062.32c.29.046.58.045.86.003l2.744 6.063a.828.828 0 0 0 1.094.412.816.816 0 0 0 .416-1.083l-2.762-6.102a2.83 2.83 0 0 0 .366-.408l1.227-1.67c.078-.106.172-.196.279-.269zm-24.546 2.896l-2.108-2.992a.83.83 0 0 0-.777-.344l-3.66.433L9.7 35.07c.095.07.18.152.251.249l1.228 1.67c.116.158.247.302.39.43l-2.752 6.075a.816.816 0 0 0 .417 1.083.831.831 0 0 0 1.093-.413l2.743-6.053c.27.037.547.036.826-.008l2.063-.32c.123-.02.248-.018.37.002zm28.478-28.348a2.758 2.758 0 0 0 0-2.907l-1.09-1.768a1.144 1.144 0 0 1-.155-.779l.324-2.041a2.767 2.767 0 0 0-1.126-2.692l-1.687-1.215a1.153 1.153 0 0 1-.447-.66l-.491-2.011a2.794 2.794 0 0 0-2.077-2.057l-2.03-.487a1.165 1.165 0 0 1-.668-.442l-1.227-1.671A2.82 2.82 0 0 0 26.1 1.32l-2.062.322a1.175 1.175 0 0 1-.787-.155L21.465.41a2.832 2.832 0 0 0-2.935 0l-1.785 1.078a1.174 1.174 0 0 1-.787.154l-2.062-.32a2.82 2.82 0 0 0-2.717 1.115L9.95 4.107c-.162.221-.399.378-.667.443l-2.03.486a2.794 2.794 0 0 0-2.078 2.057l-.491 2.01c-.065.266-.223.5-.447.661L2.551 10.98a2.767 2.767 0 0 0-1.127 2.69l.325 2.043c.043.27-.013.546-.156.78L.503 18.26a2.758 2.758 0 0 0 0 2.907l1.09 1.768c.143.233.199.51.156.779l-.325 2.041a2.767 2.767 0 0 0 1.126 2.692l1.688 1.215c.223.16.381.395.446.66l.492 2.012a2.794 2.794 0 0 0 2.076 2.056l.848.203L2.361 47.27a.813.813 0 0 0 .089.82.83.83 0 0 0 .765.329l4.617-.547 2.66 3.777a.83.83 0 0 0 1.434-.133l5.862-12.947.742.448a2.836 2.836 0 0 0 2.935 0l.77-.465 5.868 12.964a.827.827 0 0 0 .755.484.83.83 0 0 0 .679-.35l2.66-3.778 4.618.547a.831.831 0 0 0 .765-.328.813.813 0 0 0 .088-.821l-5.742-12.684.816-.195a2.794 2.794 0 0 0 2.077-2.056l.492-2.011c.065-.266.223-.5.446-.661l1.688-1.216a2.767 2.767 0 0 0 1.126-2.69l-.324-2.043c-.043-.27.012-.546.156-.779z"/></g><g><path fill="#d87753" d="M24.13 21.191a.815.815 0 0 0-.25.762l1 4.983-4.477-2.482a.833.833 0 0 0-.808 0l-4.478 2.482 1-4.983a.814.814 0 0 0-.25-.762l-3.767-3.45 5.096-.598a.827.827 0 0 0 .654-.47l2.149-4.615 2.15 4.614c.12.26.367.437.653.47l5.096.6zm5.553-4.024a1.477 1.477 0 0 0-1.246-1.013l-4.98-.585-2.1-4.508a1.482 1.482 0 0 0-1.358-.861c-.59 0-1.11.33-1.358.86l-2.1 4.51-4.98.584a1.477 1.477 0 0 0-1.246 1.013 1.457 1.457 0 0 0 .407 1.545l3.681 3.371-.977 4.87a1.46 1.46 0 0 0 .588 1.487 1.498 1.498 0 0 0 1.61.094l4.375-2.425 4.375 2.425c.516.286 1.132.25 1.61-.094a1.46 1.46 0 0 0 .587-1.487l-.977-4.87 3.682-3.371c.433-.397.59-.989.407-1.545z"/></g></g></g></g></svg>