<svg xmlns="http://www.w3.org/2000/svg" width="40" height="45" viewBox="0 0 40 45"><g><g><g><path fill="#d87753" d="M12.382 12.632c.526 0 .953-.387.953-.865s-.427-.865-.953-.865c-.525 0-.952.387-.952.865s.427.865.952.865z"/></g><g><path fill="#d87753" d="M12.382 17.83c.526 0 .953-.388.953-.866s-.427-.866-.953-.866c-.525 0-.952.388-.952.866s.427.865.952.865z"/></g><g><path fill="#d87753" d="M1.905 6.914V3.458c0-.952.854-1.727 1.905-1.727 1.04 0 1.904.761 1.904 1.727v3.456zm32.38-2.587v33.058h-20c-.525 0-.952.387-.952.865v1.73c0 1.432-1.281 2.597-2.857 2.597-1.707 0-2.857-1.343-2.857-2.781V3.462c0-.625-.183-1.217-.51-1.731h24.32c1.575 0 2.857 1.164 2.857 2.596zm-.952 38.25h-19.05a4.08 4.08 0 0 0 .955-2.605v-.865H38c-.443 1.972-2.367 3.47-4.667 3.47zm-22.857 1.73h22.857C37.01 44.308 40 41.59 40 38.25c0-.478-.426-.865-.952-.865H36.19V4.327C36.19 1.94 34.054 0 31.43 0H3.809C1.71 0 0 1.553 0 3.462v4.326c0 .478.426.866.952.866h4.762v31.142c0 2.351 1.97 4.512 4.762 4.512z"/></g><g><path fill="#d87753" d="M30.474 24.752c0 1.954-1.75 3.462-3.81 3.462s-3.81-1.507-3.81-3.462c0-1.908 1.71-3.461 3.81-3.461s3.81 1.553 3.81 3.461zm-3.281 7.069a1.033 1.033 0 0 0-1.057 0l-1.376.834v-3.006a6.222 6.222 0 0 0 1.904.296c.659 0 1.3-.101 1.905-.296v3.006zm-4.338-3.202v5.653c0 .319.193.612.503.763.31.15.685.134.977-.043l2.33-1.411 2.328 1.41c.293.178.669.194.978.044a.858.858 0 0 0 .503-.763v-5.653c1.215-.984 1.905-2.369 1.905-3.867 0-2.863-2.564-5.192-5.715-5.192-3.15 0-5.714 2.33-5.714 5.192 0 1.499.69 2.884 1.905 3.867z"/></g><g><path fill="#d87753" d="M12.382 7.445h17.143c.526 0 .953-.388.953-.866s-.427-.865-.953-.865H12.382c-.526 0-.952.387-.952.865s.426.866.952.866z"/></g><g><path fill="#d87753" d="M16.192 12.632h13.334c.526 0 .952-.387.952-.865s-.426-.865-.952-.865H16.192c-.526 0-.952.387-.952.865s.426.865.952.865z"/></g><g><path fill="#d87753" d="M16.192 17.83h13.334c.526 0 .952-.388.952-.866s-.426-.866-.952-.866H16.192c-.526 0-.952.388-.952.866s.426.865.952.865z"/></g><g><path fill="#d87753" d="M12.382 28.214h5.715c.526 0 .952-.388.952-.866s-.426-.865-.952-.865h-5.715c-.526 0-.952.387-.952.865s.426.866.952.866z"/></g><g><path fill="#d87753" d="M12.382 23.017h5.715c.526 0 .952-.387.952-.865s-.426-.866-.952-.866h-5.715c-.526 0-.952.388-.952.866s.426.865.952.865z"/></g><g><path fill="#d87753" d="M12.382 33.402h5.715c.526 0 .952-.388.952-.866s-.426-.865-.952-.865h-5.715c-.526 0-.952.387-.952.865s.426.866.952.866z"/></g></g></g></svg>