<svg xmlns="http://www.w3.org/2000/svg" width="43" height="45" viewBox="0 0 43 45"><g><g><g><path fill="#d87753" d="M41.122 19.467c0 10.968-8.24 20.647-19.623 23.088C10.115 40.12 1.875 30.445 1.875 19.478V8.875C8.84 7.663 15.436 5.31 21.5 1.878c6.07 3.42 12.664 5.771 19.622 6.995zm1.092-12.169l-.063-.01c-7.173-1.18-13.957-3.589-20.165-7.16a.975.975 0 0 0-.967 0C14.855 3.694 8.113 6.095.981 7.269l-.188.03c-.441.073-.763.432-.763.853v11.327c0 5.77 2.123 11.423 5.979 15.919 3.855 4.496 9.288 7.653 15.297 8.89a.99.99 0 0 0 .396 0c6.01-1.24 11.442-4.4 15.297-8.897 3.855-4.498 5.978-10.153 5.978-15.923V8.15c0-.42-.322-.78-.763-.853z"/></g><g><g><path fill="#d87753" d="M21.484 6.29a.967.967 0 0 0 .455-.113l.01-.005.008-.005c.444-.233.598-.759.35-1.175-.25-.417-.816-.564-1.26-.33l-.02.01c-.443.237-.598.765-.346 1.18.17.28.482.438.803.438z"/></g><g><path fill="#d87753" d="M17.413 6.426a63.615 63.615 0 0 1-12.498 4.09c-.418.09-.715.44-.715.843v8.11c0 .938.067 1.884.2 2.814.062.434.458.75.914.75.04 0 .082-.002.123-.008.505-.063.86-.499.792-.972a18.317 18.317 0 0 1-.184-2.584v-7.425a65.5 65.5 0 0 0 12.162-4.056c.46-.206.655-.722.436-1.153-.22-.432-.77-.615-1.23-.409z"/></g><g><path fill="#d87753" d="M37.87 10.495c-.51 0-.923.388-.923.866v8.11c0 7.694-4.848 14.753-12.35 17.984-.462.2-.665.713-.453 1.147.156.318.49.505.84.505a.97.97 0 0 0 .384-.08c3.956-1.703 7.313-4.43 9.71-7.887 2.43-3.503 3.714-7.538 3.714-11.67v-8.11c0-.477-.413-.865-.923-.865z"/></g><g><path fill="#d87753" d="M21.301 38.568l-.035.008c-.492.123-.786.597-.655 1.059.11.387.483.643.891.643.079 0 .158-.009.238-.029l.035-.008c.492-.123.786-.597.655-1.059-.13-.462-.636-.737-1.129-.614z"/></g></g><g><path fill="#d87753" d="M32.294 21.409l-.71 1.08a2.17 2.17 0 0 0-.244 1.904l.414 1.21a.544.544 0 0 1-.264.656l-1.149.64a2.294 2.294 0 0 0-1.162 1.586l-.226 1.244a.584.584 0 0 1-.56.468l-1.317.061a2.49 2.49 0 0 0-1.824.903l-.802.99a.628.628 0 0 1-.731.17l-1.19-.522a2.584 2.584 0 0 0-2.068 0l-1.189.521a.628.628 0 0 1-.73-.169l-.803-.99a2.49 2.49 0 0 0-1.825-.903l-1.315-.061a.584.584 0 0 1-.561-.468l-.226-1.244A2.295 2.295 0 0 0 12.65 26.9l-1.148-.64a.544.544 0 0 1-.265-.656l.414-1.21a2.169 2.169 0 0 0-.245-1.904l-.708-1.08a.535.535 0 0 1 .09-.696l.958-.885c.51-.472.773-1.127.723-1.797l-.096-1.265a.562.562 0 0 1 .424-.579l1.27-.359a2.394 2.394 0 0 0 1.536-1.283l.532-1.15a.607.607 0 0 1 .665-.328l1.288.237a2.557 2.557 0 0 0 2.006-.466l1.025-.777a.634.634 0 0 1 .753 0l1.025.777a2.56 2.56 0 0 0 2.006.466l1.288-.237a.613.613 0 0 1 .665.328l.532 1.15c.286.62.846 1.088 1.536 1.283l1.27.36c.27.076.445.314.425.578l-.097 1.265c-.05.67.213 1.325.723 1.797l.959.886c.2.185.237.47.09.695zm1.581.907c.6-.915.45-2.081-.366-2.836l-.96-.885a.543.543 0 0 1-.177-.441l.096-1.265c.082-1.077-.63-2.047-1.733-2.359l-1.27-.359a.588.588 0 0 1-.377-.315l-.531-1.15c-.454-.98-1.596-1.543-2.714-1.338l-1.289.237a.629.629 0 0 1-.492-.114l-1.025-.776a2.587 2.587 0 0 0-3.073 0l-1.025.776a.628.628 0 0 1-.492.114l-1.289-.237c-1.119-.206-2.26.357-2.714 1.338l-.532 1.15a.588.588 0 0 1-.377.315l-1.27.36c-1.102.31-1.814 1.28-1.733 2.358l.097 1.265a.543.543 0 0 1-.178.44l-.959.886c-.816.755-.967 1.92-.366 2.836l.709 1.08c.092.14.114.31.06.467l-.415 1.21c-.351 1.025.093 2.125 1.08 2.674l1.149.64a.563.563 0 0 1 .285.39l.226 1.243c.194 1.068 1.135 1.852 2.289 1.905l1.316.062c.177.008.34.089.448.221l.802.99c.473.583 1.207.903 1.956.903.347 0 .697-.069 1.026-.213l1.19-.52a.635.635 0 0 1 .507 0l1.19.52c1.036.454 2.29.164 2.981-.69l.803-.99a.611.611 0 0 1 .447-.221l1.317-.062c1.154-.054 2.095-.837 2.289-1.905l.226-1.244a.563.563 0 0 1 .285-.389l1.15-.64c.986-.55 1.43-1.649 1.079-2.674l-.415-1.21a.532.532 0 0 1 .06-.466z"/></g><g><path fill="#d87753" d="M23.898 17.724c-.444-.235-1.006-.088-1.257.328l-4.962 8.243c-.25.416-.094.944.35 1.179.144.076.3.112.453.112a.935.935 0 0 0 .804-.44l4.962-8.243c.25-.416.094-.944-.35-1.179z"/></g><g><path fill="#d87753" d="M24.723 26.345c-.506 0-.917-.386-.917-.861s.411-.86.917-.86.918.385.918.86-.412.86-.918.86zm.005-3.453c-1.526 0-2.768 1.165-2.768 2.596 0 1.432 1.242 2.597 2.768 2.597 1.527 0 2.768-1.165 2.768-2.597 0-1.431-1.241-2.596-2.768-2.596z"/></g><g><path fill="#d87753" d="M18.273 19.67c-.506 0-.917-.385-.917-.86s.411-.86.917-.86.918.385.918.86-.412.86-.918.86zm.005-3.452c-1.526 0-2.768 1.165-2.768 2.597 0 1.431 1.242 2.596 2.768 2.596 1.527 0 2.768-1.165 2.768-2.596 0-1.432-1.241-2.597-2.768-2.597z"/></g></g></g></svg>