<svg xmlns="http://www.w3.org/2000/svg" width="22" height="16" viewBox="0 0 22 16"><g><g><path fill="#8a1a1f" d="M14.124 8.478l-4.616 2.476a.694.694 0 0 1-.696-.022.733.733 0 0 1-.342-.623V5.373c0-.255.13-.49.341-.623a.694.694 0 0 1 .696-.024l4.615 2.46a.731.731 0 0 1 .383.646c0 .271-.146.52-.38.646zm7.018-7.116C20.348.395 18.883 0 16.082 0H5.918C3.054 0 1.562.42.77 1.45 0 2.454 0 3.934 0 5.982v3.903c0 3.967.915 5.982 5.918 5.982h10.164c2.428 0 3.774-.349 4.644-1.202C21.62 13.789 22 12.36 22 9.885V5.982c0-2.16-.06-3.648-.858-4.62z"/></g></g></svg>