<svg xmlns="http://www.w3.org/2000/svg" width="118" height="90" viewBox="0 0 118 90"><g><g><g><g><path fill="#231f20" d="M90.694 63.429c-1.441 0-2.608.62-3.501 1.86-.893 1.24-1.34 3.259-1.342 6.057 0 3.04.458 5.142 1.373 6.305.915 1.162 2.049 1.743 3.403 1.743a4.098 4.098 0 0 0 2.497-.791c.714-.53 1.284-1.368 1.71-2.515.425-1.148.638-2.655.638-4.523 0-2.035-.199-3.625-.597-4.769-.398-1.143-.965-1.991-1.701-2.543a4.021 4.021 0 0 0-2.469-.827zm-.179-.886a7.18 7.18 0 0 1 3.883 1.134 7.753 7.753 0 0 1 2.837 3.157 9.975 9.975 0 0 1 1.038 4.558 10.094 10.094 0 0 1-1.03 4.586 7.944 7.944 0 0 1-2.83 3.196 7.018 7.018 0 0 1-3.82 1.143 6.668 6.668 0 0 1-3.699-1.112A7.95 7.95 0 0 1 84.104 76a10.133 10.133 0 0 1-1.048-4.624 9.92 9.92 0 0 1 1.013-4.525 7.922 7.922 0 0 1 2.79-3.163 6.654 6.654 0 0 1 3.667-1.142zm-25.407.353v.002h-.012zm7.476.002v.864h-1.596a1.066 1.066 0 0 0-.787.278.95.95 0 0 0-.279.703v7.886l6.174-6.83c.31-.298.5-.698.533-1.126a.763.763 0 0 0-.366-.655 2.15 2.15 0 0 0-1.194-.25h-.454v-.864h6.722v.864h-.521c-.52.018-1.027.16-1.481.41a5.465 5.465 0 0 0-1.498 1.15l-3.78 4.115 5.448 8.294c.234.398.557.737.943.992.349.202.748.304 1.152.294h.597v.864h-7.404v-.864h.837c.414.03.83-.024 1.222-.16a.47.47 0 0 0 .307-.404.814.814 0 0 0-.137-.436l-4.491-6.886-2.58 2.856v4.166a.712.712 0 0 0 .223.578c.238.186.534.284.836.278h1.596v.864h-7.498v-.864h1.442c.293.023.585-.06.82-.236a.779.779 0 0 0 .265-.617V64.61a.732.732 0 0 0-.298-.627 1.736 1.736 0 0 0-1.01-.223h-1.22v-.86zm-22.828-.005v.005h-.002zm7.594.005v.865h-1.818a.8.8 0 0 0-.639.236 1.108 1.108 0 0 0-.204.742v13.405a.832.832 0 0 0 .263.687c.173.133.522.2 1.05.2h2.308a3.916 3.916 0 0 0 3.01-1.27c.779-.843 1.347-2.312 1.702-4.406h.776l-.38 6.54H49.762v-.864h1.343c.346.033.691-.066.966-.278.207-.24.308-.553.279-.867V64.622a.832.832 0 0 0-.235-.645.969.969 0 0 0-.684-.22h-1.675v-.859zm-17.081 2.917l-2.935 7.56h5.78zm.312-3.275h.748l5.88 15.556a1.395 1.395 0 0 0 1.454.941h.51v.864h-6.538v-.864h.521c.492.034.986-.045 1.442-.23a.533.533 0 0 0 .28-.495 1.201 1.201 0 0 0-.079-.41l-1.353-3.612h-6.471l-.765 2.067c-.168.417-.27.859-.298 1.308.004.382.19.74.502.964.43.297.948.439 1.47.403h.558v.864H32.5v-.864a2.39 2.39 0 0 0 1.506-.43c.372-.288.713-.833 1.021-1.637l5.557-14.42z"/></g><g><path fill="#ed1c24" d="M73.676 34.788c-.134.2-.27.399-.407.595h-.352zm2.067 14.56l3.963-.374-1.429-1.47-2.534 1.841zm-25.575.543h.898l-1.97-1.814zM24.671 56.11l.837 1.33 1.643-.96-2.471-.373zM0 61.924c6.695-1.747 12.553-3.856 18.208-5.947l.68 1.241 1.443-.91-2.045-.345c1.78-.659 3.545-1.317 5.3-1.961l2.078-.62-.02-.133a129.48 129.48 0 0 1 15.065-4.522 58.855 58.855 0 0 1-5.446 3.26c7.532-2.927 12.49-3.724 14.378-4.524l-1.395-.136c4.692-.67 9.425-1.018 14.166-1.04-1.606.912-3.097 1.406-4.369 1.413 9.917 2.005 19.288-.619 19.028.124.206-.253.405-.506.603-.758 4.117.419 8.525 1.022 13.267 1.83 2.087 1.375 4.951 2.4 9.15 3.428a11.826 11.826 0 0 1-4.528-2.606c3.722.623 7.566.945 8.483.873 2.232-.178 5.345 3.402 4.796 2.444-.622-1.097 7.216-.37 5.484-1.047-3.068-1.203-4.56-4.428 1.03-2.445 2.089.746-1.309-5.812 1.986-4.063l-7.398-4.32c.465-1.389.878-2.817 1.291-4.23.115-.403.486-.903.332-1.364a1.531 1.531 0 0 1 .307-1.667c.421-.475-.17-.314-.09-.953.073-.458.545-1.525.592-1.992.502-4.58.28-9.258.38-13.855a49.073 49.073 0 0 1-1.225 5.742c-.048.2.218.669.17.877-.072.403-.469.556-.6.87-.128.372-.37.533-.535.894-.218.484-.455.967-.72 1.436-.332.59-1.166 1.017-1.116 1.461.081.62.195 1.048-.455 1.195-.357.08-.226.833-.557.992-.52.233-.64 1.16-.503 1.605.137.445-.8.064-.956.5-.162.508-.28 1.008-1.005 1.203a1.933 1.933 0 0 0-1.004.711c-.187.278-.05.758-.251.944-.413.356-.94.323-1.395.637-.593.404-1.215.764-1.86 1.077a150.587 150.587 0 0 0-16.864-1.777c3.292-10.38.708-20.738-3.758-31.802a24.044 24.044 0 0 1 1.198 6.815c.025.459.025.92 0 1.37-.026.45-.179.928-.081 1.389.186.75.087 1.541-.28 2.222-.298.572-.37 1.589-.412 2.306-.05.797.298 1.427 0 2.063-.28.59-.28 1.606-.357 2.412-.048.5-.882.5-.924 1.055-.041 1.056-.178 1.145-.859 1.847-.153.153-.279 1.445-.664 2.306-.279.555-.859 1.064-.8 1.667a1.11 1.11 0 0 1-.558 1.097c-.26.17.315.833.153 1.11-.178.34-.987.412-1.174.743-.154.258-.307.508-.452.766-.248.414-.505.834-.762 1.22l-2.38-1.834c1.178 1.061 1.262 2.128.623 3.198a121.521 121.521 0 0 0-20.746 2.569c.767-12.167-2.252-24.147-5.811-28.244 1.481 2.822 2.08 6.313 2.017 10.033 0 .233-.131.703-.154 1.033-.016.395.073.686.064.967-.041.555-.186.653-.242 1.22-.05.5.2 1.072.056 1.563-.218.792.033.936.055 1.034.09.277-.535.541-.518.833.016.678-.026 1.128-.196 1.475-.211.429-.35.89-.413 1.364a1.692 1.692 0 0 1-.544.991c-.279.128.129.598.05.895-.136.483-.259 1.17-.395 1.636-.162.517-.478.806-.528 1.314a1.553 1.553 0 0 1-.558 1.111c-.25.186.05.686-.055.958-.162.425-.41.7-.572 1.092a13.75 13.75 0 0 0-.335-1.842c.115.81.143 1.631.084 2.448l-.05.125a43.75 43.75 0 0 1-.874 1.944 2.164 2.164 0 0 1-.387.217l.329-.092-.115.242a124.17 124.17 0 0 0-19.083 7.5c-.862-1.445-1.816-2.859-2.556-4.445-.161-.314-.736-.364-1.093-.775-.28-.278-.28-.966-.592-1.203-.379-.277-.689-.277-1.02-.597-.366-.372-.511-.833-.876-1.178-.28-.277-.558-.533-.837-.791-1.616-1.506-3.312-3-4.968-4.552 1.092 1.385 1.887 3.002 2.981 4.39.249.311.39.693.405 1.09.039.419-.114.788 0 1.202.114.414.77.67.837 1.042.067.372-.12.894 0 1.283.214.635.289 1.31.217 1.975-.05.492.444 1.25.452 1.725 0 .59-.519.573-.43 1.111a3.63 3.63 0 0 1-.144 1.637c-.39.927-.74 1.836-1.069 2.691C9.401 55.552 4.494 58.797 0 61.924zM58.043 47.7a33.264 33.264 0 0 1-1.86-.432c.544.295 1.17.436 1.86.432zm59.299-2.22l.413.241a6.45 6.45 0 0 0-.413-.24zM80.122 3.664A24.078 24.078 0 0 0 78.702.26c.49 1.142.965 2.277 1.42 3.404zM42.341 40.152l-.561.158c.194-.027.383-.08.561-.158zm-30.81-5.891c-.531-.674-1.132-1.292-1.87-1.804a82.094 82.094 0 0 0 1.87 1.804z"/></g><g><path fill="#231f20" d="M91.454 83.923h.26c.273 0 .526.14.672.37v4.033c.011.272-.072.539-.237.756a.718.718 0 0 1-.583.294h-.162v.389h2.352v-.389h-.098a.816.816 0 0 1-.622-.278 1.216 1.216 0 0 1-.25-.85v-3.4l3.592 4.909h.446v-4.85a1.06 1.06 0 0 1 .193-.692.917.917 0 0 1 .636-.278v-.389h-2.126v.39c.246 0 .48.1.65.277.16.193.24.437.229.686v2.895l-3.152-4.262h-1.808zm-7.933-.552l-.332.636a2.623 2.623 0 0 0-.745-.495 2.142 2.142 0 0 0-.798-.141 2.646 2.646 0 0 0-2.045.927 3.427 3.427 0 0 0-.836 2.38 3.692 3.692 0 0 0 .354 1.684c.223.457.571.842 1.004 1.111.432.269.933.408 1.442.403.362.009.719-.078 1.035-.253.321-.196.586-.47.77-.797l.491 1.045h.307v-2.29a.305.305 0 0 1 .084-.23.383.383 0 0 1 .279-.08h.354v-.384h-2.82v.397h.61a.3.3 0 0 1 .224.078.321.321 0 0 1 .075.234v.555a1.36 1.36 0 0 1-.343.972 1.236 1.236 0 0 1-.948.367 1.276 1.276 0 0 1-.815-.278 1.666 1.666 0 0 1-.527-.855 6.568 6.568 0 0 1-.173-1.759 5.285 5.285 0 0 1 .209-1.666c.101-.348.302-.659.577-.895.232-.182.52-.28.815-.278.41.008.796.188 1.066.495.385.463.646 1.015.758 1.605h.352l-.142-2.483h-.28zM69 83.534v.39h.519c.1-.01.2.02.279.083.065.071.097.166.09.262v4.769a.311.311 0 0 1-.099.247.509.509 0 0 1-.332.084h-.454v.39h2.985v-.39h-.48a.458.458 0 0 1-.307-.092.306.306 0 0 1-.08-.242v-4.822a.278.278 0 0 1 .077-.217.358.358 0 0 1 .251-.072h.539v-.39zm-7.76.462a2.324 2.324 0 0 0-1.576-.634 1.926 1.926 0 0 0-1.428.536c-.36.37-.553.873-.531 1.39-.01.296.056.59.192.855.142.248.35.453.601.591.434.22.895.377 1.372.47.304.061.603.14.897.239.193.072.362.198.487.364a.954.954 0 0 1 .156.555c.004.304-.127.595-.36.792-.282.226-.64.34-1.002.317-1.05 0-1.747-.658-2.09-1.973h-.342v2.306h.278l.46-.614a2.419 2.419 0 0 0 1.67.678 2.347 2.347 0 0 0 1.656-.62 1.87 1.87 0 0 0-.468-2.994 6.485 6.485 0 0 0-1.166-.339 4.572 4.572 0 0 1-1.01-.311 1.013 1.013 0 0 1-.418-.358.857.857 0 0 1-.131-.462.963.963 0 0 1 .328-.73c.234-.208.54-.317.852-.303.417.006.815.17 1.114.461.382.384.653.864.782 1.39h.353l-.036-2.148h-.278l-.365.555zm-15.91-.462v.39h.46a.559.559 0 0 1 .332.072.278.278 0 0 1 .093.223v4.788a.364.364 0 0 1-.093.262.355.355 0 0 1-.278.097h-.525v.39h5.3l.087-2.37h-.354a2.55 2.55 0 0 1-.558 1.485 1.53 1.53 0 0 1-1.178.492h-.7a.604.604 0 0 1-.362-.092.258.258 0 0 1-.084-.217v-2.303h.226a.986.986 0 0 1 .78.295c.207.297.311.654.297 1.015h.354V85.19h-.354c.001.333-.105.657-.304.924a.927.927 0 0 1-.726.278h-.279v-2.176A.278.278 0 0 1 47.55 84c.08-.061.18-.09.279-.078h.795c.27-.012.538.045.778.167.207.12.375.297.483.51.158.352.26.728.304 1.112h.346l-.115-2.176zm-10.31 5.83a.325.325 0 0 1-.257-.092.458.458 0 0 1-.08-.302v-4.697a.299.299 0 0 1 .1-.258 1.05 1.05 0 0 1 .496-.072c.383-.024.765.062 1.1.25.28.208.486.5.59.831.169.55.242 1.125.218 1.7a4.788 4.788 0 0 1-.186 1.552 1.615 1.615 0 0 1-1.56 1.082zm-2.441-5.83v.39h.438a.473.473 0 0 1 .32.085c.071.075.106.176.096.278v4.706a.421.421 0 0 1-.09.278.338.338 0 0 1-.279.102h-.485v.39h3.236c.506 0 1.002-.141 1.431-.41.433-.26.781-.64 1.001-1.094.234-.506.348-1.059.335-1.616a3.488 3.488 0 0 0-.365-1.611 2.668 2.668 0 0 0-1.013-1.111 2.863 2.863 0 0 0-1.5-.387z"/></g></g></g></g></svg>