<svg xmlns="http://www.w3.org/2000/svg" width="100" height="82" viewBox="0 0 100 82"><defs><linearGradient id="pez7a" x1="262.99" x2="225.61" y1="122.05" y2="134.27" gradientUnits="userSpaceOnUse"><stop offset="0" stop-color="#474240"/><stop offset=".6" stop-color="#474240"/><stop offset=".9" stop-color="#928b89"/><stop offset="1" stop-color="#fefefe"/></linearGradient><linearGradient id="pez7b" x1="260.66" x2="226.23" y1="120.94" y2="132.57" gradientUnits="userSpaceOnUse"><stop offset="0" stop-color="#474240"/><stop offset=".6" stop-color="#474240"/><stop offset=".9" stop-color="#928b89"/><stop offset="1" stop-color="#fefefe"/></linearGradient><linearGradient id="pez7c" x1="329.32" x2="329.52" y1="70.07" y2="70.07" gradientUnits="userSpaceOnUse"><stop offset="0" stop-color="#5f6263"/><stop offset=".26" stop-color="#5f6263"/><stop offset=".81" stop-color="#e8ebec"/><stop offset=".96" stop-color="#fbffff"/><stop offset="1" stop-color="#fbffff"/></linearGradient><linearGradient id="pez7d" x1="340.92" x2="341.5" y1="63.11" y2="63.11" gradientUnits="userSpaceOnUse"><stop offset="0" stop-color="#5f6263"/><stop offset=".26" stop-color="#5f6263"/><stop offset=".81" stop-color="#e8ebec"/><stop offset=".96" stop-color="#fbffff"/><stop offset="1" stop-color="#fbffff"/></linearGradient><linearGradient id="pez7e" x1="304.04" x2="304.56" y1="71.34" y2="71.34" gradientUnits="userSpaceOnUse"><stop offset="0" stop-color="#5f6263"/><stop offset=".26" stop-color="#5f6263"/><stop offset=".81" stop-color="#e8ebec"/><stop offset=".96" stop-color="#fbffff"/><stop offset="1" stop-color="#fbffff"/></linearGradient><linearGradient id="pez7f" x1="289.78" x2="298.4" y1="84.49" y2="84.49" gradientUnits="userSpaceOnUse"><stop offset="0" stop-color="#5f6263"/><stop offset=".26" stop-color="#5f6263"/><stop offset=".81" stop-color="#e8ebec"/><stop offset=".96" stop-color="#fbffff"/><stop offset="1" stop-color="#fbffff"/></linearGradient><linearGradient id="pez7g" x1="373.82" x2="374.02" y1="64.29" y2="64.29" gradientUnits="userSpaceOnUse"><stop offset="0" stop-color="#5f6263"/><stop offset=".26" stop-color="#5f6263"/><stop offset=".81" stop-color="#e8ebec"/><stop offset=".96" stop-color="#fbffff"/><stop offset="1" stop-color="#fbffff"/></linearGradient><linearGradient id="pez7h" x1="370.72" x2="370.95" y1="64.14" y2="64.14" gradientUnits="userSpaceOnUse"><stop offset="0" stop-color="#5f6263"/><stop offset=".26" stop-color="#5f6263"/><stop offset=".81" stop-color="#e8ebec"/><stop offset=".96" stop-color="#fbffff"/><stop offset="1" stop-color="#fbffff"/></linearGradient><linearGradient id="pez7i" x1="384.16" x2="384.52" y1="45.73" y2="45.73" gradientUnits="userSpaceOnUse"><stop offset="0" stop-color="#5f6263"/><stop offset=".26" stop-color="#5f6263"/><stop offset=".81" stop-color="#e8ebec"/><stop offset=".96" stop-color="#fbffff"/><stop offset="1" stop-color="#fbffff"/></linearGradient><linearGradient id="pez7j" x1="293.52" x2="298.04" y1="75.74" y2="75.74" gradientUnits="userSpaceOnUse"><stop offset="0" stop-color="#5f6263"/><stop offset=".26" stop-color="#5f6263"/><stop offset=".81" stop-color="#e8ebec"/><stop offset=".96" stop-color="#fbffff"/><stop offset="1" stop-color="#fbffff"/></linearGradient><linearGradient id="pez7k" x1="312.47" x2="312.86" y1="95.12" y2="95.12" gradientUnits="userSpaceOnUse"><stop offset="0" stop-color="#5f6263"/><stop offset=".26" stop-color="#5f6263"/><stop offset=".81" stop-color="#e8ebec"/><stop offset=".96" stop-color="#fbffff"/><stop offset="1" stop-color="#fbffff"/></linearGradient><linearGradient id="pez7l" x1="302.62" x2="302.86" y1="78.04" y2="78.04" gradientUnits="userSpaceOnUse"><stop offset="0" stop-color="#5f6263"/><stop offset=".26" stop-color="#5f6263"/><stop offset=".81" stop-color="#e8ebec"/><stop offset=".96" stop-color="#fbffff"/><stop offset="1" stop-color="#fbffff"/></linearGradient><linearGradient id="pez7m" x1="311.29" x2="311.54" y1="92.67" y2="92.67" gradientUnits="userSpaceOnUse"><stop offset="0" stop-color="#5f6263"/><stop offset=".26" stop-color="#5f6263"/><stop offset=".81" stop-color="#e8ebec"/><stop offset=".96" stop-color="#fbffff"/><stop offset="1" stop-color="#fbffff"/></linearGradient><linearGradient id="pez7n" x1="315.82" x2="317.37" y1="104.12" y2="104.12" gradientUnits="userSpaceOnUse"><stop offset="0" stop-color="#5f6263"/><stop offset=".26" stop-color="#5f6263"/><stop offset=".81" stop-color="#e8ebec"/><stop offset=".96" stop-color="#fbffff"/><stop offset="1" stop-color="#fbffff"/></linearGradient><linearGradient id="pez7o" x1="299.43" x2="303.05" y1="83.38" y2="83.38" gradientUnits="userSpaceOnUse"><stop offset="0" stop-color="#5f6263"/><stop offset=".26" stop-color="#5f6263"/><stop offset=".81" stop-color="#e8ebec"/><stop offset=".96" stop-color="#fbffff"/><stop offset="1" stop-color="#fbffff"/></linearGradient><linearGradient id="pez7p" x1="306.64" x2="307.08" y1="84.53" y2="84.53" gradientUnits="userSpaceOnUse"><stop offset="0" stop-color="#5f6263"/><stop offset=".26" stop-color="#5f6263"/><stop offset=".81" stop-color="#e8ebec"/><stop offset=".96" stop-color="#fbffff"/><stop offset="1" stop-color="#fbffff"/></linearGradient><linearGradient id="pez7q" x1="305.44" x2="305.72" y1="82.56" y2="82.56" gradientUnits="userSpaceOnUse"><stop offset="0" stop-color="#5f6263"/><stop offset=".26" stop-color="#5f6263"/><stop offset=".81" stop-color="#e8ebec"/><stop offset=".96" stop-color="#fbffff"/><stop offset="1" stop-color="#fbffff"/></linearGradient><linearGradient id="pez7r" x1="311.76" x2="312.75" y1="92.72" y2="92.72" gradientUnits="userSpaceOnUse"><stop offset="0" stop-color="#5f6263"/><stop offset=".26" stop-color="#5f6263"/><stop offset=".81" stop-color="#e8ebec"/><stop offset=".96" stop-color="#fbffff"/><stop offset="1" stop-color="#fbffff"/></linearGradient><linearGradient id="pez7s" x1="313.22" x2="316.51" y1="96.57" y2="96.57" gradientUnits="userSpaceOnUse"><stop offset="0" stop-color="#5f6263"/><stop offset=".26" stop-color="#5f6263"/><stop offset=".81" stop-color="#e8ebec"/><stop offset=".96" stop-color="#fbffff"/><stop offset="1" stop-color="#fbffff"/></linearGradient><linearGradient id="pez7t" x1="309.14" x2="310.78" y1="89.11" y2="89.11" gradientUnits="userSpaceOnUse"><stop offset="0" stop-color="#5f6263"/><stop offset=".26" stop-color="#5f6263"/><stop offset=".81" stop-color="#e8ebec"/><stop offset=".96" stop-color="#fbffff"/><stop offset="1" stop-color="#fbffff"/></linearGradient><linearGradient id="pez7u" x1="303.1" x2="304.41" y1="78.97" y2="78.97" gradientUnits="userSpaceOnUse"><stop offset="0" stop-color="#5f6263"/><stop offset=".26" stop-color="#5f6263"/><stop offset=".81" stop-color="#e8ebec"/><stop offset=".96" stop-color="#fbffff"/><stop offset="1" stop-color="#fbffff"/></linearGradient><linearGradient id="pez7v" x1="302.54" x2="302.74" y1="77.78" y2="77.78" gradientUnits="userSpaceOnUse"><stop offset="0" stop-color="#5f6263"/><stop offset=".26" stop-color="#5f6263"/><stop offset=".81" stop-color="#e8ebec"/><stop offset=".96" stop-color="#fbffff"/><stop offset="1" stop-color="#fbffff"/></linearGradient><linearGradient id="pez7w" x1="296.18" x2="299.85" y1="69.54" y2="69.54" gradientUnits="userSpaceOnUse"><stop offset="0" stop-color="#5f6263"/><stop offset=".26" stop-color="#5f6263"/><stop offset=".81" stop-color="#e8ebec"/><stop offset=".96" stop-color="#fbffff"/><stop offset="1" stop-color="#fbffff"/></linearGradient><linearGradient id="pez7x" x1="295.72" x2="296.59" y1="66.53" y2="66.53" gradientUnits="userSpaceOnUse"><stop offset="0" stop-color="#5f6263"/><stop offset=".26" stop-color="#5f6263"/><stop offset=".81" stop-color="#e8ebec"/><stop offset=".96" stop-color="#fbffff"/><stop offset="1" stop-color="#fbffff"/></linearGradient><linearGradient id="pez7y" x1="304.1" x2="307.18" y1="82.32" y2="82.32" gradientUnits="userSpaceOnUse"><stop offset="0" stop-color="#5f6263"/><stop offset=".26" stop-color="#5f6263"/><stop offset=".81" stop-color="#e8ebec"/><stop offset=".96" stop-color="#fbffff"/><stop offset="1" stop-color="#fbffff"/></linearGradient><linearGradient id="pez7z" x1="313.02" x2="313.51" y1="94.04" y2="94.04" gradientUnits="userSpaceOnUse"><stop offset="0" stop-color="#5f6263"/><stop offset=".26" stop-color="#5f6263"/><stop offset=".81" stop-color="#e8ebec"/><stop offset=".96" stop-color="#fbffff"/><stop offset="1" stop-color="#fbffff"/></linearGradient><linearGradient id="pez7A" x1="311.6" x2="312.16" y1="91.83" y2="91.83" gradientUnits="userSpaceOnUse"><stop offset="0" stop-color="#5f6263"/><stop offset=".26" stop-color="#5f6263"/><stop offset=".81" stop-color="#e8ebec"/><stop offset=".96" stop-color="#fbffff"/><stop offset="1" stop-color="#fbffff"/></linearGradient><linearGradient id="pez7B" x1="318.56" x2="319.45" y1="103.83" y2="103.83" gradientUnits="userSpaceOnUse"><stop offset="0" stop-color="#5f6263"/><stop offset=".26" stop-color="#5f6263"/><stop offset=".81" stop-color="#e8ebec"/><stop offset=".96" stop-color="#fbffff"/><stop offset="1" stop-color="#fbffff"/></linearGradient><linearGradient id="pez7C" x1="301.78" x2="303.31" y1="77.1" y2="77.1" gradientUnits="userSpaceOnUse"><stop offset="0" stop-color="#5f6263"/><stop offset=".26" stop-color="#5f6263"/><stop offset=".81" stop-color="#e8ebec"/><stop offset=".96" stop-color="#fbffff"/><stop offset="1" stop-color="#fbffff"/></linearGradient><linearGradient id="pez7D" x1="299.66" x2="300.14" y1="71.56" y2="71.56" gradientUnits="userSpaceOnUse"><stop offset="0" stop-color="#5f6263"/><stop offset=".26" stop-color="#5f6263"/><stop offset=".81" stop-color="#e8ebec"/><stop offset=".96" stop-color="#fbffff"/><stop offset="1" stop-color="#fbffff"/></linearGradient><linearGradient id="pez7E" x1="310.41" x2="310.96" y1="89.23" y2="89.23" gradientUnits="userSpaceOnUse"><stop offset="0" stop-color="#5f6263"/><stop offset=".26" stop-color="#5f6263"/><stop offset=".81" stop-color="#e8ebec"/><stop offset=".96" stop-color="#fbffff"/><stop offset="1" stop-color="#fbffff"/></linearGradient><linearGradient id="pez7F" x1="298.63" x2="373.52" y1="67.21" y2="67.21" gradientUnits="userSpaceOnUse"><stop offset="0" stop-color="#474240"/><stop offset=".26" stop-color="#474240"/><stop offset=".81" stop-color="#928b89"/><stop offset=".96" stop-color="#fefefe"/><stop offset="1" stop-color="#fefefe"/></linearGradient><linearGradient id="pez7G" x1="298.36" x2="374.36" y1="67.53" y2="67.53" gradientUnits="userSpaceOnUse"><stop offset="0" stop-color="#474240"/><stop offset=".26" stop-color="#474240"/><stop offset=".81" stop-color="#928b89"/><stop offset=".96" stop-color="#fefefe"/><stop offset="1" stop-color="#fefefe"/></linearGradient><linearGradient id="pez7H" x1="300.87" x2="377.33" y1="72.09" y2="72.09" gradientUnits="userSpaceOnUse"><stop offset="0" stop-color="#474240"/><stop offset=".26" stop-color="#474240"/><stop offset=".81" stop-color="#928b89"/><stop offset=".96" stop-color="#fefefe"/><stop offset="1" stop-color="#fefefe"/></linearGradient></defs><g><g><path fill="#8a1a1f" d="M.01.019h100v82H.01z"/></g><g><path fill="#fff" d="M15.26 72.413l4.208-7.652h1.285l4.208 7.652h-.982l-1.04-1.916h-5.704l-1.04 1.916zm2.431-2.677h4.816l-2.408-4.425z"/></g><g><path fill="#fff" d="M25.63 72.413v-7.652h.841v3.16h1.356l5.517-3.16h1.426l-6.055 3.49 6.008 4.162h-1.449l-5.412-3.721h-1.39v3.721z"/></g><g><path fill="#fff" d="M35.66 64.761h5.47c1.012 0 1.74.18 2.185.541.444.36.666.967.666 1.821 0 .832-.213 1.395-.637 1.69-.425.294-1.16.44-2.204.44H36.5v3.16h-.84zm5.726 3.721c.686 0 1.142-.08 1.367-.242.258-.184.386-.556.386-1.117 0-.582-.126-.992-.38-1.232-.253-.24-.684-.359-1.291-.359H36.5v2.95z"/></g><g><path fill="#fff" d="M53.241 72.413v-7.057h-.315l-6.429 7.057H45.13v-7.652h.84v7.058h.072l6.417-7.058h1.624v7.652z"/></g><g><path fill="#fff" d="M61.775 72.437H58.22c-1.099 0-1.871-.203-2.32-.61-.448-.408-.671-1.114-.671-2.12v-2.224c0-1.006.227-1.723.684-2.153.455-.43 1.225-.644 2.307-.644h3.554c1.963 0 2.945.727 2.945 2.18h-.842c0-.463-.144-.804-.432-1.023-.335-.257-.888-.386-1.659-.386h-3.553c-.826 0-1.394.141-1.701.424-.308.282-.462.816-.462 1.602v2.224c0 .756.154 1.272.462 1.547.307.275.875.412 1.7.412h3.554c.755 0 1.293-.111 1.612-.335.32-.224.48-.582.48-1.074h.841c0 .735-.228 1.281-.684 1.641-.455.36-1.21.54-2.261.54z"/></g><g><path fill="#fff" d="M65.65 64.761h8.743v.771H70.43v6.881h-.842v-6.88H65.65z"/></g><g><path fill="#fff" d="M84.096 71.919c-.397.33-1.153.496-2.267.496h-3.553c-1.106 0-1.885-.193-2.337-.578-.454-.385-.679-1.066-.679-2.042v-2.38c0-.99.22-1.693.66-2.107.44-.415 1.226-.622 2.356-.622h3.553c1.043 0 1.776.175 2.197.528.483.404.724 1.138.724 2.202v2.379c0 1.057-.218 1.764-.654 2.124zm-.614-6.084c-.285-.252-.84-.38-1.665-.38h-3.553c-.787 0-1.345.135-1.672.403-.327.267-.49.763-.49 1.489v2.44c0 .726.155 1.215.468 1.469.31.252.876.379 1.694.379h3.553c.85 0 1.41-.121 1.683-.363.272-.242.41-.737.41-1.484v-2.441c0-.755-.143-1.259-.428-1.512z"/></g><g><path fill="#a42522" d="M44.415 29.558l1.993.069 3.703 6.129-9.351-.003z"/></g><g><path fill="#fefefe" d="M53.58 20.506s.24-.57.513-.634c.275-.065.593-.032.593-.032l.342-.109.148-.214.492-.225.753.053 1.072-.011s.786-.193.821-.344c.035-.15.354-.45.457-.473.102-.02 1.472-.193 1.54-.236.069-.044.959-.548 1.266-1.032.309-.484 1.335-.053 1.46.01.126.065 1.484.613 1.622.603.136-.011.777.132 1.039.361.261.23 1.162.853 1.162.853s.627 1.118.57 1.667c-.056.547 1.186.258 1.186.258l1.245.45 1.107 1.387 1.87 1.022.376 1.149-.113 1.505-.377 1.494.526.86.296 1.02-.24.592-.719.753-.456.719-1.404.44-1.79-.225-1.78-.42-.194.292.616 1.343.764.052.536.497-.502.698-.639 1.71-1.448 1.492-.834 1.097-1.075.058-9.523-9.789-1.278-8.69z"/></g><g><path fill="#2b2a29" d="M3.313 63.363c.01-.012.026-.022.043-.018.435.069.547.273.809.14.021-.012.05.003.055.025.094.475.512.58.381.638-.299.131-.208.12-.468-.025-.09-.05-.205-.045-.38-.018a.703.703 0 0 1-.1.009c-.23 0-.188-.18-.369-.48-.065-.106-.029-.144.03-.27zm4.268.003c-.197-.555-.07-.422-.068-.418.078.204.285.605.759.86.02.01.05-.017.026-.034-.533-.392-.375-.484-.324-.44.187.176.48.38.892.47.027.009.042-.027.016-.037-.243-.09-.603-.263-.83-.542-.014-.018.014-.039.033-.028.148.093.437.21.838.094.024-.006.02-.038-.004-.038-.18-.012-.537-.056-.823-.22-.022-.01-.008-.04.015-.036.12.014.243-.002.331-.018.07-.012.121-.025.13-.023.332.108.593.432 1.076.414.357-.014.394-.047.627.087.231.133.348-.006.322-.127-.028-.12.201.076-.017.356-.218.277.326.272.073.522-.253.248-.253.166-.476-.046-.222-.21-.345-.196-.214.055.131.251.062.15-.093.239-.153.089-.208.117-.23-.111-.02-.23-.1-.281-.133-.06-.024.15-.091.11-.175.07a.273.273 0 0 0-.132-.036c-.08.007-.173.06-.262.065a.7.7 0 0 1-.062.003c-.397 0-.75-.302-1.012-.577a1.157 1.157 0 0 1-.283-.444zm-.952-.286c-.041-.373.097-.817.172-1.025.008-.02.04-.016.042.006.013.265.131.655.267 1.004.265.693.162 1.367-.27 1.972a.28.28 0 0 1-.234.108c-.212 0-.439-.185-.25-.526.28-.509.316-1.173.273-1.54zm-.782-.536c.067-.273.217-.603.43-.756.028-.02.07.01.058.043-.104.263-.2.526-.404.806-.201.28-.42.575-.598.777-.019.02.013.047.032.028.456-.44.86-.978 1.024-1.209.015-.019.044-.006.039.017-.096.395.056.743.044 1.414-.01.587-.81 1.474-.98 1.081-.07-.153-.027-.538-.584-.67-.3-.07-.427-.416-.482-.721-.002-.01.002-.02.011-.03.051-.044.135-.097.343-.056.097.018.163.03.215.03.129 0 .161-.065.324-.238.23-.24.44-.157.528-.516zm1.572-2.097c-.31-.187-.155-.569-.284-.89-.014-.033.03-.065.059-.042.044.03.222.108.135.147a.053.053 0 0 0-.031.06c.036.227-.025.555.216.698.224.134.406.34.528.56.015.027 0 .057.017.078.274.34.755.761 1.548.957.028.006.04-.029.015-.04-.407-.162-1.14-.532-1.519-1.193-.013-.02.018-.04.035-.022.297.287 1.193.96 2.822.549.027-.007.018-.046-.008-.042-.618.086-1.817.14-2.548-.56-.017-.019.006-.046.028-.033.32.168 1.195.526 2.272.163.025-.01.014-.047-.013-.041-.374.059-3.042-.075-1.358-.197.21-.016.422-.045.55-.1.011-.004.091.017.21.036.124.022.29.043.459.033.108-.007.332-.012.422.059.1.084.075.345.392.453.124.043.36.156.385.294.031.168-.274.237-.208.574.035.172.132.217-.052.326-.036.02-.07-.028-.108-.04-.254-.095-.43.36-.615.484-.37.248-.958.427-1.405.258-.685-.303-.34-.481-.89-.762-.284-.144-.41-.18-.513-.338-.006-.006-.007-.014-.007-.024.024-.206-.231-.55-.372-.877-.064-.146-.025-.148-.092-.187-.304-.18-.417-.253-.565-.528-.017-.034-.07-.022-.072.015-.057 1.034-.904.588-1.22 2.024-.083.372-.36.344-.675.645a.292.292 0 0 1-.119.077.77.77 0 0 1-.257.01c-.216-.028-.23.037-.367.136-.256.187-.375-.034-.906-.097-.237-.03-.355-.114-.46-.169-.225-.117-.33-.092-.396-.066-.09.034-.114.068-.272-.239-.088-.165-.264-.116-.417-.069-.18.058-.324.113-.25-.175.066-.265.297-.11.379-.512.083-.412-.287-.432.191-.593.754-.257.335-.363 1.001-.681.49-.234.856-.493 1.434-.199.396.2 1.039.073 1.427-.248.25-.207.352-.355.66-.526 0 0 .091.094.166.268.37.86.416.59 1.104 1.127.004.004.01.005.015.005.014 0 .027-.015.019-.029a1.46 1.46 0 0 0-.49-.517zM1.424 57.15a11.663 11.663 0 0 1 1.702-.22c-.447.251-.873.41-1.382.41-.089 0-.18-.004-.274-.015.021-.056.022-.12-.046-.175zm3.724-.208c.002.022 0 .043 0 .065-.027-.01-.064-.01-.083.028-.017 0-.028.012-.038.025-.108-.25-.172-.6-.207-.803.12.233.229.453.328.685zm2.724-2.25c.018.194.062.397.141.579a.14.14 0 0 0-.123.147 1.839 1.839 0 0 1-.222-.04c.052-.153.127-.414.204-.687zm22.187-.134c-.132.496-.32.91-.682 1.271-.127.125-.215.12-.307.115-.039-.001-.076-.004-.118.003.332-.495.698-.944 1.107-1.39zm-21.995-.552c.062.635.162.79.192 1.198-.054-.039-.106-.02-.141.004-.185-.415-.163-.785-.051-1.202zm-.49 1.32a.188.188 0 0 0-.155-.018 2.155 2.155 0 0 1-.582-.32c.034-.151.041-.265.043-.294.254-.213.498-.44.732-.686-.136.28-.274.598-.338.858-.197-.026-.255.263-.016.291a.215.215 0 0 0 .243-.14c.024-.078-.01-.156-.119-.143.094-.37.359-.791.524-1.033-.08.52-.158.98-.332 1.485zm4.81-1.715c.01-.04.069-.035.075.004.204 1.377 1.932 1.836.236 2.243-.29-.458-.62-1.252-.312-2.247zm9.35 1.147c-1.31-.22.178-1.708 2.18-2.17.015.007-.018 1.07-.054 1.268-.095.528-.293.819-.013 1.217.218.31-.014 1.23-.128 1.62-.027.093.051.028.124-.037.048-.044.095-.088.105-.083.217.086-.768 1.594-.779 1.612-.09.13.178-.018.314-.143.027-.028.076 0 .061.037-.235.65-1.022 1.487-.504 1.125.032-.027.075.01.055.047-.254.4-.767.863-.972 1.037a.037.037 0 0 0 .015.064c.134.033-.59.6-.316.52-.438.256-.71.324-.624.21.717-.97.64-2.146.669-2.465-.012-.059-.051-.026-.09.008-.027.022-.055.046-.073.036-.038-.02.206-1.063.046-1.102-.004-.002-.062.051-.125.105-.094.079-.2.158-.17.058.136-.427.224-1.017.257-1.26.011-.087-.062-.02-.135.045-.048.044-.097.088-.122.088-.014 0-.02-.012-.018-.039.104-1.429.93-1.691.296-1.798zm9.719-2.36l.005.01c-.088-.028-.149.07-.067.127.133.089.295-.063.14-.098l-.007-.026c.066.015.13.034.188.056-.08.078.126.211.197.19l-.025.064a5.983 5.983 0 0 1-.908-.375c.124.003.303.018.477.052zm-.58-.423c.194.09.396.181.523.336a5.6 5.6 0 0 0-.557-.098zm-17.01-.19c.705.903.61 2.26 1.158 3.282.022.038.086.013.072-.029-.278-.781-.344-1.895-.36-2.267.306.382.777.99 1.142 1.634.284.503.797 1.804.295 1.804-.137 0-.35-.097-.664-.334-1.711-1.29-1.765-1.799-1.643-4.09zm-5.519 1.433a45.821 45.821 0 0 1 1.575-1.613c.157.48.074.667-.394 1.427-.141.228-.259.435-.34.64-.238.606-.082 1.161.417 1.387-.146.122-.304.28-.467.452-.12-.07-.375-.093-.75-.07-.112-.664-.548-1.679-.04-2.223zm21.607-1.28c.159-.214-.072-.253.636-.407-.03.203-.065.409-.1.613-.157-.055-.358-.059-.536-.206zm.97-.319l.014-.093c.093.13.232.338.357.583-.209-.117-.408-.22-.37-.49zm-26.577-.401c.027.066-.06-.138.164.827.005.02-.026.035-.041.016-.036-.04-.133-.212-.148-.131-.112.613.244.934-.055.727-.107-.07-.005.502.264.892.047.062-.157.007-.166.006-.112-.04.063.49.576.74.071.035-.092.068-.141.072-.116.01.276.533.764.684.021.006.021.037-.002.043-.064.012-.275.01-.202.059.665.452 1.105.52 1.32.519-.018.21-.162.365-.418.451-.282.094-.784.19-1.275-.064-.057-.03.082-.062.017-.084-.186-.068-.686-.27-.915-.508-.056-.063.141-.012.148-.059 0-.01-.001-.015-.01-.023-.114-.061-.426-.251-.578-.486-.04-.062.213-.042.213-.11 0-.042-.678-.426-.441-1.11.014-.041.037-.008.06.025.016.024.034.049.05.043.01-.004.017-.014.014-.022-.02-.161-.046-.499.05-.79.005-.02.037-.02.044 0 .11.271.016-.465.244-.904.014.032.027.042.036.042.01 0 .018-.01.02-.018.05-.157.198-.57.408-.837zm26.311-.17c-.051.397-.172.419-.545.53.212-.243.425-.43.545-.53zm-1.033.212c.332-.11.693-.176.93-.24-.128.109-.324.286-.519.511-.073.086-.167.12-.273.154zm1.384-.283c.13.08.262.198.384.318.165.164.071.275.125.358-.354-.207-.562-.227-.509-.676zm-19.951 4.36c-.269-.05-.458-.012-.57-.226-.471-.9.239-1.095.554-1.892.23-.574.194-.697.557-1.396.225-.43.67-.832 1.072-1.13-.27.429-.541.974-.642 1.588-.147.904-.505 1.472-.77 1.79-.03.036.02.079.055.05.956-.831.8-1.473.934-1.46.109.01-.028.777-.097 1.051-.175.697.014 1.607.443 2.177-.077.02-.414.094-.55.094a.13.13 0 0 1-.05-.007c-.132-.076-.306-.526-.936-.638zm19.661-4.944c-.028.583-.17.52-.718.687.118-.107-.162-.222.718-.687zm-20.55 1.074c.485-.43 1.495-1.165 2.463-1.452-.521.344-1.877 1.387-2.247 1.784-.016.017-.031.025-.047.025-.087 0-.143-.275-.169-.357zm-.155 1.24c.502-.899 1.555-1.552 1.88-1.818a11.097 11.097 0 0 1 1.481-1.014c.025-.002.046-.002.07-.002-2.82 1.582-2.16 2.775-2.993 3.798-.415.507-.274.904-.433.904-.049 0-.128-.038-.262-.125-.265-.17-.188-.946.257-1.743zm20.295-2.59l.417-.37c-.005.529-.154.474-.618.708a.364.364 0 0 1-.192.036c-.026 0-.055 0-.088.003-.067.004-.147.135-.067.25.055.08.235.082.15-.132.278-.151.603-.28.805-.354l-.003.05c-.205.123-.53.336-.82.619-.016-.004-.122-.064-.157-.002-.034.052.032.187.173.194-.099.03-.198.064-.293.099-.086-.427-.123-.56.252-.83.109-.08.24-.104.373-.068a.124.124 0 0 0 .036.005c.104 0 .155-.138.032-.207zm.793-.897c.019-.022.037-.05.058-.08.08.188.172.383.265.55.094.168-.014.317.083.404.156.139.15.31.095.49l-.095.045c-.157-.341-.416-.534-.408-.761.008-.216.01-.429.002-.648zm-19.806.095c.457.163.848.326.973.323-1.264.206-1.521.83-2.36 1.585-1.169-.343-.527-.819-.587-1.621-.068-.923 1.08-.605 1.974-.287zm19.972-.339c.026-.038.052-.083.077-.126.27.348.46.465.411.901-.133-.055-.231-.096-.293-.235a4.09 4.09 0 0 1-.195-.54zm1.498-.33c.078.318.247.61.114.828-.009.014-.012.026-.016.036-.469-.314-.314-.43-.203-.864.015-.052.093-.05.105 0zm-1.079-.471c.02-.048.102-.038.106.011.013.171.026.412.026.69-.35-.228-.249-.403-.132-.701zm-22.204.624c-.456-.02-1.19-.285-1.07-.815.227.25.67.48 1.066.595.554.163.83-.067 1.79.287.413.155.853.25 1.216.314-1.041-.01-1.057-.16-1.85-.32-.245-.049-.759-.049-1.152-.061zm10.523-.503c-.553.087-.468.756.007.845-.173.37-.168.717.128 1.046.404.45.925.333.703 1.022-.289.805.768.274-.194.776-.632.332-.06.88-.054 1.12.003.079-.084.146-.16.15-.277.014-.559-.056-.735.325-.214.479.236.99.205 1.604-.025.476-.216.898-.762.966a3.05 3.05 0 0 1-.7-.016c-.39-.038-.799-.077-1.348.14a.8.8 0 0 1-.47.058c.36-1.061-.961-2.652-1.441-3.537-.02-.035.028-.07.058-.045 1.052.883 2.743.563 3.975 2.953.02.04.084.016.072-.027-.59-1.945-2.77-2.284-4.052-3.615a.037.037 0 0 1 .046-.057c1.287.596 2.77.672 4.13 1.319.043.018.078-.038.04-.062-.814-.508-2.472-1.139-3.41-1.51-.042-.017-.022-.078.02-.068 1.097.19 2.374 0 3.108-.15.045-.01.035-.076-.012-.07-2.458.231-3.63-.2-3.984-.368-.034-.017-.022-.069.017-.069 1.17-.043 2.303-.504 2.946-.818.043-.019.012-.08-.03-.065-1.507.54-2.614.556-3.112.523-.044 0-.047-.062-.004-.071 1.342-.232 2.152-1.074 2.472-1.476.027-.034-.021-.077-.055-.051-.937.717-1.705.962-2.15 1.043-.02.003-.039-.008-.045-.024-.041-.135.588-.078 1.236-.972.024-.033-.024-.072-.056-.047-.895.69-1.55.795-1.994.717.076-.055.165-.137.264-.151.249-.046.446.074.744-.439.077-.136.252-.122.453-.11.297.02.653.04.833-.43.15-.39.514-.37.901-.346.29.016.595.032.835-.123.31-.198.1-.151.535-.078a.9.9 0 0 0 .141.012c.155 0 .296-.054.46-.217.123-.12.769.344.439.393zm-11.137-.28c-.69-.442.061-.408.465-.336.471.087 1.148.094 2.265.852.177.122.346.223.506.306a5.052 5.052 0 0 1-.742-.21c-1.266-.473-1.48.038-2.494-.612zm.279-.608c.08-.08.218-.375.416-.571.595-.582.996.638 1.383.938.028.022.008.065-.025.065-.005 0-.01 0-.016-.004-.549-.22-1.32-.207-1.758-.428zm21.779-.792c.72.71.532.49.138 1.488-.107-.262-.119-1.139-.138-1.488zm-19.438.465c-.27-.264-.624-.34-.936-.445-.453-.156-.618-.32-.436-.754.179-.427.42-.286.683.049.242.307.503.771.752 1.11.013.027-.009.051-.034.051a.047.047 0 0 1-.029-.011zm24.932-.354c-1.006-.107-1.687-.369-2.157-.733-.41-.322.073-.928.517-.644.794.51.037.793 1.129.584.576-.11 1.065.323 1.265.757.184.398.124.796-.34.772-.243-.011.173.55.518 1.11.35.57.626 1.142.06 1.108-1.203-.073.143.456.107 1.29-.018.413-.24.341-.446.27-.208-.073-.4-.145-.346.287.108.858-.525.67-1.104 1.333-.3.344-.505.182-.726.02-.206-.15-.426-.302-.748-.05-.674.522-.84.952-1.463.473a2.375 2.375 0 0 0-.563-.299l-.021-.06c.175.092.189-.15-.002-.213-.006-.088-.075-.15-.079-.254-.005-.197-.14-.03-.48-.232a.402.402 0 0 1-.16-.17 4.71 4.71 0 0 0-.377-.614c.226.121.585.277.888.47l-.013.012c-.205.199.204.268.187.002.001-.096.09-.44-.053-.454a.124.124 0 0 0-.093.02.955.955 0 0 0-.097-.125l.066-.073c.176.062.194.141.263.17.072.033.182-.038.173-.147-.013-.155-.207-.128-.213-.015a2.169 2.169 0 0 1-.205-.068c.024-.203-.138-.083-.374-.277.155.018.299.051.397.177.04.054.157.045.205-.04.046-.082-.027-.162-.093-.146-.146.034-.605-.07-.723-.162-.309-.237-.254-.34-.233-.68.145.134.36.353.282.596-.058.188.235.14.297.008.093-.199.26-.404.515-.393.161.008.251-.09.276-.188.028-.12-.042-.238-.202-.165-.02-.04-.044-.079-.07-.126.045-.089.09-.182.133-.274l.108.045c-.14.194.242.408.348.11.062.144.358.032.5.312.194.375.446.759.77 1.069.044.043.115-.011.08-.06-.412-.592-1.148-1.888-.93-3.356.005-.04.054-.055.085-.03a4.81 4.81 0 0 0 2.619 1.087c.059.005.08-.075.022-.095-.706-.256-2.376-.982-3.004-2.282-.022-.044.032-.085.075-.06.32.195 1.157.62 2.335.62.34 0 .708-.035 1.102-.121.056-.012.051-.091-.007-.096zm-13.306 3.09c-.882-.67-.08-1-.437-1.645-.27-.492.036-.577.241-.893.206-.314-.428-.678-.433-1.167-.004-.488.395-.151.756-1.035.48-1.183.94-.755 1.478-.328.33.262.69.524 1.102.416.483-.123.54-.578 1.194-.593.368-.007.58.408.335.67-.401.428-1.195 1.13-2.594 1.86-.054.028-.02.108.04.09.674-.19 2.1-.73 3.592-2.132.042-.04.111.012.08.06-.404.626-1.43 2.026-3.236 3.29-.05.035.002.11.056.081.718-.375 1.903-1.086 2.873-2.116.04-.043.113.005.084.056-.385.648-1.01 1.761-1.3 2.66-.019.058.072.088.097.033.314-.696.9-1.879 1.583-2.649.036-.043.108-.001.089.048-.207.514-.583 1.7-.218 2.778.017.052.105.038.102-.017-.022-.594.022-1.908.71-3.022.026-.04.096-.026.098.023.025.307.155 1.016.785 1.646.039.04.107-.002.087-.052a4.364 4.364 0 0 1-.328-1.246c-.14-1.403.59-.92.75 1.54.016.243-.254.49-.237.927.031.871-.51.546-1.422 1.573-.55.62-1.283.508-1.96.396-.442-.073-.86-.146-1.186-.013a.744.744 0 0 1-.271.062c-.498 0-.383-.837-1.22-.873-.498-.022-.965-.18-1.29-.427zm-3.254-5.958c-.09.255-.171.437.05.35.221-.085.26-.028.065.212-.198.242-.468.377-.263.538.206.157.253.14-.058.256-.312.115-.262.493.123.627.33.128.364.136.64.196.403.088.8 1.076-.02.645-.385-.206-.197.022-.642-.387-.168-.153-.63-.423-.794-.105-.095.184.045.305.18.406a3.754 3.754 0 0 1-.274-.069c-.456-.118-.612.237-.36.472a1.91 1.91 0 0 1-.36-.004c-.253-.023-.51.103-.436.355-.81-.082-.792-.286-1.684-.034-.582.165-1.263.382-1.508.458-.038.014-.07-.034-.04-.06.97-.865 2.213-.777 2.787-.674.044.008.064-.055.023-.071-.845-.332-1.717-.098-2.15.065-.04.015-.072-.037-.037-.062 1.088-.747 2.545-.792 3.291-.756.046.003.053-.064.009-.073a4.963 4.963 0 0 0-3.805.807c-.034.026-.08-.016-.054-.05 1.052-1.356 3.098-1.545 4.167-1.543.046 0 .05-.07.004-.073-2.867-.316-4.212 1.033-4.636 1.59-.025.033-.083.005-.068-.034.469-1.21 1.613-2.005 2.262-2.376.038-.024.006-.082-.036-.063-1.795.722-2.459 2.038-2.671 2.614-.014.04-.078.029-.075-.012.094-1.074.67-1.868 1.073-2.3.03-.033-.02-.08-.054-.05a3.83 3.83 0 0 0-1.408 2.617c-.265-.733-.234-1.278.052-2.024.015-.04-.047-.067-.07-.027-.158.261-.258.941-.334.778.093-.332.079-.613.054-.852-.05-.46-.086-1.063.624-.958.398.057 1.026.197 2.137-.283.184-.073.494.05.83.174.354.13.738.26 1.038.16.266-.087.54-.07.81-.052.11.007.219.014.325.014.181 0 .358-.02.523-.096.406-.185.86-.497.77-.246zm-9.124 1.165c.033-.486.367-.569.056-1.438-.128-.365.187-.435.192-.357.039.515.593.741.56 1.078-.032.306-.178 1.785-.152 1.953-.493-.368-.681-.832-.656-1.236zm25.283-2.009c1.33-.06 2.58-1.557 3.196-2.54.196-.312.496-.485.806-.508.838-.068 1.27.326 1.504 1.075.233.754 1.672.948 1.32 1.806-.35.859.752 1.019.086 1.707-.668.687.208 1.276-1.253 1.56-1.289.247.847 1.362-.428 1.684-1.273.324-1.102 1.13-2.386.518-.235-.112-.517-.13-.599-.395-.122-.4-.467-.598-.25-.916a.432.432 0 0 1 .449-.175c.324.062.616.1.861.122.064.006.079-.084.016-.1-1.025-.209-1.737-.625-2.34-.973-.19-.112-.192-.258-.493-.35-.282-.085-.92-.62-.988-.696-.037-.044.025-.105.072-.073 1.381.909 3.186 1.092 4.315 1.107.066 0 .071-.096.008-.103-2.352-.233-3.916-1.083-4.644-1.572-.05-.034-.003-.11.055-.086 2.177.993 4.287.526 5.235.217.06-.018.037-.106-.024-.095a9.989 9.989 0 0 1-1.531.12c-1.36 0-2.433-.29-3.128-.553-.416-.161-.308-.757.14-.78zm-9.544-6.483c.01.042.069.053.094.016.35-.498.749-.438 1.105-.377.253.044.487.088.665-.074.846-.754 3.016 2.52 1.8 5.248-.183-1.984-1.024-2.225-.722-1.61.317.647.324.791.2 1.434-.126.642-.369.432-.811-.11-.442-.545-1.289-1.366-1.878-1.734-.59-.365.665.855 1.282 1.757.615.906.3 1.384-.297.87-.596-.511-.95-1.378-1.873-2.172-.922-.792-.953-.35-.222.23.729.582 1.88 2.32 1.872 3.25-.012 1.72-3.954-1.081-4.5-1.188-1.813-.358-1.383-2.104-1.004-3.216.21-.616.262-1.132.36-1.533.17-.689.864-1.09 1.59-.76a.053.053 0 0 0 .022.005c.028 0 .054-.022.053-.05-.08-1.755 1.924-1.54 2.264.014zm11.664-1.967c.747.09.946.576.802 1.675-.089.685-.11.93.162 1.53.475 1.058-.31 1.944-1.275 2.69-.722.56-1.408.862-2.06.876-.308.011-.41-.298-1.16-.611a.396.396 0 0 1-.016-.73c.824-.387 1.127-.813 1.234-1.093.032-.08-.079-.146-.142-.084-.59.572-1.402.823-2.03.934-.362.062-.639-.318-.443-.612.694-1.036.935-1.877 1.005-2.45.011-.098-.144-.125-.169-.03-.27.97-.84 1.78-1.329 2.336-.252.287-.762.11-.757-.262.012-1.223-.331-1.979-.611-2.392-.053-.076-.184-.02-.155.07.14.422.187.855.183 1.27 0 .092-.14.111-.167.026-.25-.766-.598-1.417-.65-2.01a3.446 3.446 0 0 1-.358-.1l-.112-.044a3.092 3.092 0 0 1-.725-.19.782.782 0 0 0 .016.051c-.364-.116-.79-.257-1.193-.124-.817.269-.343.305-1.38.314-.532.002-.53-.272-.888-.527-.616-.438-1.719.065-2.002.468-.284.405.049.43-.521.537-1.398.267-1.125 1.432-1.546 2.67-.446 1.304-1.625 2.729.346 3.804.34.185.576.326.778.465.195.137.23.405.075.584-.146.162-.248.376-.352.598-.288.61-.727.72-.876 1.097-.159.405-.248.605.276 1.349.38.53.032.552-.026.952-.4.081-1.036.328-1.441.614a.585.585 0 0 0-.056-.419c-.383-.723-1.005-.612-1.25-.299-.242.301-.753.138-.865.268-.111.132-.142.454-.665.39-.525-.062-1.302-.452-1.544.177-.283.737-1.026.117-.715-.316.187-.263 1.04-.458 1.793-.244.464.13.547-.072.592-.275.038-.165.048-.33.222-.315.385.038.618.078.73-.086.133-.195.299-.192.433-.188.13.003.23.005.247-.17.017-.172.215-.02.474.133.293.173.665.346.946.048.323-.34-.045-1.043-.485-1.138-.322-.07-.967-.254-.532-.32.44-.069 1.158-.16 1.18-.471.02-.31-.3-.292-.54-.274-.283.02-.455.041.186-.484.355-.29.155-.658-.167-.614-.163.022-.347.028-.193-.098.44-.369-.262-.92-.804-.22-.61.786-1.422.608-2.266.802-.272.062-.555-.08-.838-.219-.286-.144-.57-.287-.842-.219-2.555.637-1.445-.266-2.016-.403.14.01.416.042.49-.061.155-.155-.1-.264-.011-.392.098-.143.554-.008.7-.313.13-.27-.745-.115-.747-.297.082-.072.343-.02.53.027.226.054.229-.09.367-.185.053-.038.104-.018.154.002.068.024.135.05.207-.06.303-.272.095-.821-.276-.707-.268.08-.787.332-.874-.016-.087-.347.183-.483-.189-.443-.653.074-.371 1.157-1.35 1.068-.26-.022-.45.298-.53.361.011-.484-.485-.379-.6-.079-.106.281-.052.31-.316.533-.109.094-.2.07-.288.045-.126-.032-.25-.066-.42.227-.326.54.493.955.203 1.512-.27.516-.872 1.385-.9 1.443-.261.549-.545.558-.736 1.089-.144.404-.434.396-.716.39-.21-.006-.413-.011-.553.144-.635.7.21.801.293 1.087.102.345-.114.69.49.768a.383.383 0 0 0 .135-.013c.127-.026.232-.053.196.27-.093.84-.55 1.235.837 1.7-1.015 1.047-1.778 1.874-2.851 2.873a2.428 2.428 0 0 0-.602 0v-.009c.01-.247-.258-.074-.193.116.047.135.236.08.199-.069a1.84 1.84 0 0 1 .533.02c-.105.098-.207.19-.306.277-.09-.032-.217-.079-.357-.128-.922-.827-1.614-1.84-1.53-3.148.01-.18-.084-.51-.194-.358-.2.273-.382.523-.516.848-.085-.16-.099-.011-.133.062-.161.331-.164.469-.235.923-.283.065-.111.567-.104.763-.243-.288-.264.43-.247.538.038.264.199.502.458.67-.602-.023.107.55.245.647-.076.187.294.408.59.555-.33-.112-.636-.255-.834-.546.139-.02.009-.17-.123-.11-.09.043-.032.157.069.12.058.091.13.176.204.253-.219-.096-.45-.176-.598-.272.014-.052-.029-.146-.134-.16-.095-.016-.13.083-.068.132a.433.433 0 0 0 .166.055c.193.136.51.282.806.406.142.12.284.215.389.28l-.087.059c-.296-.089-.989-.317-1.301-.596.132-.234-.127-.178-.16-.035-.023.091.08.123.137.071.297.262.887.49 1.213.603-.356-.041-.713-.009-1.008-.21.126-.232-.131-.172-.163-.034-.021.09.079.13.134.075.025.019.051.034.078.05a10.185 10.185 0 0 1-.48-.078.162.162 0 0 0-.164-.092c-.098.01-.105.112-.033.144.034.015.163.03.194.007.3.065.6.108.897.19a4.377 4.377 0 0 0-.727-.047c-.125-.131-.313.03-.167.097.064.027.239.045.194-.055a4.5 4.5 0 0 1 1.048.133c-.217.16-.476.392-.758.41-.75.052-1.448.19-2.188.284.06-.288-.435-.204-.391.135.023.18.232.241.333.163-.043.232.226.374.362.244.076-.075.086-.136.083-.174.276.033.562.008.834-.039-.35.2-.681.393-.87.517-.216-.28-.525.181-.178.4.271.174.523-.14.306-.321.616-.392 1.204-.656 1.87-.943-.26.287-.728.756-1.193 1.007-.046-.277-.48-.057-.338.25.129.271.5.106.39-.125.467-.25.937-.71 1.214-1.007.182-.198.227-.196.456-.315.003.205-.008.635-.118 1.022-.093-.066-.12.097-.105.163.03.15.244.019.14-.13.068-.228.109-.47.13-.675.013.292-.019.578-.023.867-.031.022-.049.143-.041.177a.08.08 0 0 0 .155.008.143.143 0 0 0-.055-.173c.005-.119.02-.281.038-.458.01.028.02.057.032.084-.067.038-.052.137.044.14a.177.177 0 0 0 .154-.082c.03-.054.003-.107-.148-.073-.133-.318-.015-.64.03-.973.037.324.127.92.324 1.255-.063.04-.062.142.04.144a.183.183 0 0 0 .155-.084c.03-.054 0-.109-.154-.074-.212-.355-.276-1.056-.294-1.342l.08-.065c.04.112.104.269.197.436.054.299.127.622.221.832a.342.342 0 0 0 .016.167c.034.07.144.062.152-.031.01-.1-.078-.162-.133-.16-.062-.16-.087-.393-.133-.615.062.087.13.173.21.25-.063.083.039.164.106.092.097-.105-.03-.26-.081-.14-.272-.272-.334-.62-.366-.977l.271-.207c.034.21.102.583.219.853-.141.106.15.329.155.063h.097c.011.028.023.057.032.086-.116.01-.08.223.04.232.078.008.114-.053.115-.115.003-.068-.034-.136-.096-.111a7.018 7.018 0 0 0-.049-.131c.015-.024.017-.055.002-.077.043.01.082.003.112-.021l.017.015c-.065.108.112.294.165.108.05.17.228.02.148-.14.053-.056.04-.129-.01-.159.145.001.255-.19.12-.192.005-.051-.035-.082-.082-.084l-.033-.148c.096.008.192.008.286 0-.037.156.266.131.284-.025a.113.113 0 0 0 .116-.049c.084-.03.165-.067.24-.112.089.136.345-.065.193-.153a.978.978 0 0 0 .236-.383c.344-.271.768-.075 1.505.04.125.019.236.019.33.007-.771.872-1.6 2.035-1.855 2.398-.155.04-.345.195-.473.553-.092.264-.48-.027-.795.485-.315.507-.341.983-1.277.828-.87-.143-1.098.14-1.734.55-.366.235-.07.4-.668.605-.6.202-.391.296-.464.652-.073.358-.196.16-.281.496-.086.337.024.503.465.478.192-.01.247.101.279.214.041.145.044.29.257.173.332-.183.385-.071.752.004.099.02-.125.261.033.52.208.343.156.539.624.468.219-.034.293.048.343.13.056.092.08.184.248.109.64-.287.744-.018.862.252.088.202.184.405.519.372.073-.01.185-.053.21.004.175.43.87.67 1.2.21.165-.225.226-1.498.592-1.079.219.255.536.818.684 1.032.02.026-.047.14-.069.219-.01.043-.058.011-.075.039-.016.026.017.09.086.091.057 0 .067-.06.025-.083-.057-.03.049-.246.095-.152.073.152.052.062-.172.356a.042.042 0 0 1-.04.015c-.04-.014-.06.071.002.109.036.016.09-.008.05-.059-.038-.05.206-.277.221-.291.018.04-.1.167-.178.37-.01.031-.066.017-.068.047-.004.059.112.033.015.128a.038.038 0 0 1-.04.009c-.044-.016-.059.072.007.104.031.016.09-.008.048-.056-.04-.05.155-.174.188-.199.028-.023.071.006.06.04-.089.25.002.136-.185.318a.035.035 0 0 1-.046.005c-.047-.023-.072.069 0 .106.043.018.076-.021.059-.053-.024-.042.075-.09.1-.112-.003.017-.003.04-.018.054-.036.028.035.066.08.023.055-.059-.152-.038.127-.25.081-.058.13.246.123.257-.013.021-.384.127-.438.146-.016.004-.032 0-.043-.013-.035-.043-.132.094-.058.101.016 0 .028.01.033.022.023.06.092-.037.118-.04a.923.923 0 0 0 .151-.038c-.052.037-.179.142-.214.131-.038-.013-.099.07-.04.1.04.02.097-.027.087-.06-.012-.06.36-.254.419-.29-.019.023-.24.264-.297.239-.024-.01-.087.04-.072.084.026.082.101-.052.102-.055.264-.177.266-.325.328-.13.021.065-.33.35-.387.272-.016-.019-.072.009-.066.057.007.046.067.038.065-.009.037-.004.071.03.042.06-.028.028-.085.1-.124.09-.047-.008-.072.018-.077.044-.009.029.01.06.05.036l.057-.063c.094-.06.3-.259.3-.259.072-.04.136-.08.178-.11.007.018.019.037.002.055-.022.03-.385.47-.467.405-.07-.056-.077.04-.023.074.059.033.047-.039.076-.057.173-.096.259-.247.312-.21.055.038-.094.219-.147.18-.067-.047-.072.048-.017.08.054.03.04-.034.085-.067-.026.047-.085.174-.12.182-.084.018-.046.14.01.088.021-.023.022-.066.037-.091.071-.105.134-.218.212-.32l-.139.291c-.058.032-.018.12.029.075.067-.065.002-.082.016-.12.264-.675.296-.072.276-.003-.084.295-.124.583-.185.878-.004.018-.024.031-.043.029-.093-.013-.107.157.037.189.067.014.091-.017.11-.046.015-.027.026-.053.055-.05.129.017.163-.112.083-.168-.04-.028.022-.12.042-.19.01-.037.065-.034.074.001.017.075.085.247.04.269-.113.06.04.221.18.122.109-.077.032-.2-.065-.182-.02.006-.041-.008-.045-.024a4.257 4.257 0 0 1-.12-.679c-.004-.037.054-.053.072-.02.026.048.247.45.15.471-.085.02-.041.185.101.174.133-.01.122-.16.026-.174-.015-.002-.029-.011-.032-.028-.082-.372-.403-.745-.318-.808.043-.036.309.104.387.151.038.021-.004.073.09.085.034.005.044-.017.04-.038-.007-.021-.031-.041-.066-.04l-.296-.15c.048.014.37.122.39.145a.169.169 0 0 0 .07.037c.037.005.046-.017.038-.04-.01-.027-.043-.053-.084-.035-.032.017-.161-.05-.214-.074.058 0 .09.06.112.003.023-.054-.043-.129-.065-.052-.017.06-.252 0-.233-.059.01-.034.07-.025.157-.015.064.006.142.013.226.003.012 0 .025.007.038.014.022.014.043.028.058-.012.023-.057-.046-.13-.067-.047-.023.099-.6-.043-.635-.05-.023-.009-.028-.031-.035-.05l.23-.013c.138.022.286.041.393.036l.088.015c.086-.005-.01-.122-.075-.046-.032.034-.236-.017-.306-.025.034-.008.129-.053.157-.035.029.016.065-.009.045-.042-.027-.045-.091-.034-.088-.007.003.092-.465.069-.49.001-.053-.133-.015-.113.126-.093.057.008.13.016.221.013.013 0 .024.004.032.015.037.041.132-.017.07-.056-.02-.013-.018-.032-.012-.053.02 0 .038.005.046.023.016.03.09.035.11-.002.027-.058-.075-.088-.097-.058-.025.035-.107.02-.096-.044l.008-.002c.029.028.108.01.1-.023-.004-.016 0-.028.012-.036.065-.057-.143-.082-.15-.128-.014-.078-.057-.06-.096-.042-.02.01-.038.019-.05.016-.234-.027-.107-.008-.32-.14a.036.036 0 0 1 .022-.065c.043 0 .278-.01.278.05-.001.097.137.006.06-.07-.02-.018-.001-.051-.028-.07-.02-.015-.017-.11-.083-.07-.026.016-.052-.005-.076-.015.018-.06.103-.053.119-.032.025.034.096-.016.06-.072-.028-.049-.076-.026-.085.007-.008.034-.075.042-.096.013-.025-.033-.041-.021-.06-.01-.01.008-.025.016-.041.01l-.085-.022c.035-.011.148-.055.171-.011.015.025.08.013.083-.039.002-.053-.058-.055-.075-.025-.015.025-.17.037-.24.055-.02.004-.19-.027-.201-.057-.013-.032-.06-.104-.028-.13.031-.025.21.054.184.114-.02.04.028.082.073.048.076-.058.024-.175-.044-.084-.108-.089-.27-.152-.28-.174-.031-.07-.065-.137-.098-.206-.019-.034.028-.067.059-.04.062.05.179.11.174.147-.01.062.091.115.136.03.047-.087-.055-.161-.096-.118-.052.052-.243-.158-.279-.195-.027-.028.012-.075.048-.056.144.072.28.149.417.244.016.01.02.031.01.047-.032.059.032.141.122.09.11-.063.038-.206-.036-.157-.036.027-.123-.054-.165-.082-.03-.02-.012-.067.026-.064.007.002.017 0 .027 0 .037-.001.083-.003.092.027.018.065.13.072.148-.002.015-.053.105-.004.119-.093.019-.096-.106-.138-.128-.077-.007.012-.024.024-.041.02-.318-.047-.815-.03-.981-.307l-.11-.186c-.02-.033.024-.067.057-.046.23.168.513.297.81.272.31-.024.432.076.502.178.103.144.1.29.395.06.267-.21.447-.185.582-.159.118.022.204.045.284-.09.17-.29.412-.33.217-.667-.193-.333.203-.21.094-.5-.05-.132-.079-.337-.124-.52a.033.033 0 0 1 .01-.034c.087-.077.158-.19.278-.33.123-.146.142-.103.178-.06.035.04.084.082.255-.04.35-.25.09-.436.377-.735.289-.298.018-.573-.367-.707-.387-.134-.055-.758-.904-.71-.714.038-1.864-.2-2.578-.424-.059-.02-.82-.423-.859-.952-.014-.169.153-.51.008-.646.452-.805 2.152-2.483 2.732-3.044.085.006.175.004.27-.004.276.522.666.25 1.09.65.422.4.288.878 1.151.691.862-.189.577.13 1.718-.672.787-.552 1.17.788 1.688.996.297.12.363.199 1.189-.294.425-.253.879-.147 1.299-.04.27.07.53.139.757.111.583-.07 1.143-.273 1.182-1.006.038-.736-.588-1.522-.418-1.895.083-.183.207-.175.354-.169.057.002.117.005.18-.004.52-.069.62-.28.482-.844-.133-.552 1.06-.38 1.284-.822.224-.441-.337-.535-.77-.5-.433.029.125-.246.039-.911-.086-.664-.313-.429-.606-.802-.264-.34.144-.717-.104-.864.423-.103 1.006-.246 1.368-.34.062.372.132.814.184.964.249.7 1.058 1.08 1.806 1.166-.038.058-.09.527-.173.957-.11.578-.253.468-.786.727-.805.387-3.413 1.959-1.527 2.725-.3.478-.48 1.013-.52 1.568a.29.29 0 0 0 .212.305 5.773 5.773 0 0 1-.185.809c-.062.198.094.412.317.37l-.062.43c-.029.182-.055.391.189.457a2.047 2.047 0 0 1-.651 2.011c-.172.176-.078.629.516.4.74-.284 1.52-.965 2.01-1.537 1.713-2 1.902-3.712 1.514-5.765-.123-.643-.293-1.256-.416-1.889-.035-.178.008-.998.019-1.484.254.149.28.514.629.71.246.144.52.108.774.005.224-.09.538.078.906.247.664.306 1.501.61 2.281-.625.033.275.16.615.093.786-.081.216.163.2.358.384-.162-.015-.293-.029-.425-.125-.053-.04-.198-.005-.248.086-.043.074.041.125.116.104-.084.094-.006.184.106.142.168-.062.345.01.52.024-.211.034-.44.12-.632.055-.107-.037-.24.107-.17.195.12.15.299-.107.48-.14.24-.04.623-.124.854-.066-.217.081-.538.233-.791.15-.07-.024-.205.038-.22.13-.02.132.218.09.232-.006.715-.105.895-.39.926-.141.038.304-.857.622-1.172.353-.04-.033-.157-.013-.19.087-.04.112.074.095.183.08a.526.526 0 0 1 .127-.01c.065.008.131.014.198.014-.235.084-.508.251-.748.176-.112-.033-.18.023-.191.08-.017.069.046.138.21.05a.423.423 0 0 1 .132-.048c.244-.046.795-.254.918-.262.18-.013.343-.041.46-.065l-.016.11c-1.104.54-1.358.47-1.467.399-.038-.025-.06-.05-.092-.048-.06.003-.132.119-.061.22.058.086.165.036.16-.043.437-.017 1.073-.27 1.409-.417-.27.202-.631.645-1.01.44-.066-.034-.137.125-.074.22.056.081.164.036.164-.04.032-.006.065-.014.099-.022-.164.117-.309.261-.506.277-.253.022-.125.36.1.094.11-.125.693-.454.856-.538-.175.124-.53.456-.655.5-.125.042-.126.234.02.182.163-.056.164-.247.281-.346.265-.218.554-.395.724-.489-.036.277-.044.639-.242.856-.455.5-.827 1.02-1.232 1.54-.15.196-.249.122-.391.181-.15.06-.18.316.008.455.164.119.371.014.384-.12.171.23.493.105.471-.105-.03-.28.253-.412.526-.791-.073.282-.14.553-.189.768-.053.238-.232.22-.279.354-.056.164.154.379.417.33.238-.044.292-.298.17-.403a.381.381 0 0 1-.129-.388c.148-.605.351-1.144.583-1.735.027.322.048.832-.018 1.289-.034.216-.133.216-.27.326-.127.1-.077.358.148.438.229.083.414-.138.31-.278a.368.368 0 0 1-.069-.304c.099-.486.082-1.06.054-1.43-.024-.278.016-.31.09-.567.91.831.563.917.792 1.061.127.079.175-.104.064-.174-.11-.071-.372-.47-.51-.633.136.12.621.57.694.717.153.306.363.007.125-.069-.19-.06-.293-.232-.424-.38.03.016.061.027.093.04-.02.079.072.142.147.077.085-.077.056-.252-.017-.23-.42.112-.66-.397-.871-.656.29.218.843.609 1.263.719-.015.077.066.153.147.078.087-.074.054-.26-.025-.222a.445.445 0 0 1-.386-.003c-.396-.191-.831-.533-1.028-.7l.009-.106c.095.046.462.165.552.223.241.159.5.313.716.406l.222.148c.089.028.124-.032.108-.093-.014-.053-.068-.106-.163-.1-.252.019-.476-.203-.682-.334.135.025.28.021.396.098.051.034.127.006.119-.067-.01-.106-.12-.15-.164-.127-.299.15-.655-.09-.889-.256-.18-.124-.175-.306-.152-.495.193.136.55.367.856.487-.023.185.376.14.17-.063.01-.003.022-.006.03-.014 1.184.415 1.221 1.56 2.416.266.204-.223.48-.195.955-.129.527.072.62-.36 1.174-.686.371-.217.64-.383.713-.763a.414.414 0 0 1 .343-.325c.422-.074.598-.586.34-1.177-.085-.192.001-.413.199-.513.244-.116.318-.346.181-.613-.159-.312.23-.863.652-.668 1.38.63 1.42-.487 2.556-.534 1.355-.05 1.095-.58 1.087-.964-.008-.498.77-.852.619-1.883-.034-.234-.04-.303.143-.494.83-.856-.26-1.206-.017-1.81.46-1.12-.902-1.648-1.088-2.249-.262-.842-.696-1.445-1.623-1.423-.956.02-.825-.004-.478-.87.378-.95-.814-1.227-.693-2.145.118-.919.08-1.902-1.11-2.048-.157-.019-.298-.113-.44-.215a56.209 56.209 0 0 0-2.066-.294c.294.122.537.865.978.471.608-.542.736.278 1.484.37z"/></g><g><path fill="url(#pez7a)" d="M32.36 49.496c.03.015.06.025.092.035.007-.043.032-.097.108-.104a2.462 2.462 0 0 0-.127-.095l-.073.164z"/></g><g><path fill="url(#pez7b)" d="M31.45 48.672c.109.17.225.317.356.447.002-.068.004-.134.004-.198a7.014 7.014 0 0 1-.354-.258z"/></g><g><path fill="#474240" d="M31.103 54.251a.78.78 0 0 0-.073-.09l.006-.07c.065.05.142.115.227.19-.06-.011-.113-.025-.16-.03z"/></g><g><path fill="#88868b" d="M21.102 58.814l-.012.045-.05.025z"/></g><g><path fill="#a42522" d="M59.607 18.351l-1.05.264-.56.56-1.681.133-.911.065-.42.363-.666.066-.49.231-.004.444-.172.348-.573-.973.924-1.567z"/></g><g><path fill="#a42522" d="M65.7 18.22l1.365.823.21 2.145 1.507-.462-1.577-2.442z"/></g><g><path fill="#a42522" d="M71.73 32.281l-4.544 7.399-2.07-.087-.346-.556 1.025-.224 2.022-2.696.13-.841.789-1.214-.052-.643h-.789l-.92-.817.263-.94 1.446-.172.761.395.342.471 1.05-.223 1.103-.223z"/></g><g><path fill="#88868b" d="M56.812 19.52l-.062.005.024.034z"/></g><g><path fill="#88868b" d="M54.43 19.716l.018.011.014-.028z"/></g><g><path fill="#88868b" d="M55.695 22.278a.922.922 0 0 1 .195-.057l-.2-.006z"/></g><g><path fill="#88868b" d="M56.55 22.977l.2-.062c-.068-.02-.135-.03-.2-.05z"/></g><g><path fill="url(#pez7c)" d="M69.96 22.178c-.067-.064-.135-.131-.2-.189"/></g><g><path fill="url(#pez7d)" d="M75.56 18.834c.061-.003.126-.004.195-.003a.363.363 0 0 0 .375-.367c-.187.126-.377.25-.57.37z"/></g><g><path fill="url(#pez7e)" d="M57.554 22.81c.03-.008.06-.014.09-.023a8.628 8.628 0 0 0-.524-.166c.147.072.295.135.434.188z"/></g><g><path fill="url(#pez7f)" d="M53.8 27.135h-.027c-.308.003-.625.09-.974.357-1.066.821-1.212.35-1.323 1.272-.057.466-.234.428-.439.39-.202-.036-.436-.073-.614.365-.253.614-.49.908-.309 1.228.122.052.312.136.57.265.586.29.757.384.163.956-.594.57.258 1.313 1.042 1.649.782.337.37.46.539 1.137.168.674.534.825.939.794.406-.028.346-.314.778-.305 1.263.026 2.673-3.935 3.901-4.56.055-.028.023-.11-.039-.1-2.54.506-4.03 2.952-4.67 4.285-.028.06-.125.024-.103-.036 1.272-3.774 3.976-4.647 5.013-4.846.062-.012.055-.1-.006-.104-1.983-.137-3.788.817-4.698 1.405-.056.036-.12-.04-.07-.083a7.182 7.182 0 0 1 5.078-1.786l-.122-.202a8.183 8.183 0 0 0-1.171-.183c-.54.036-1.435.362-1.461.184-.014-.085.31-.111.562-.181a7.117 7.117 0 0 0-1.453.26c-.066.019-.101-.071-.04-.097a6.166 6.166 0 0 1 2.564-.52c.189-.07.367-.143.54-.215l-.149-.244a24.75 24.75 0 0 1-.307-.22c-.24-.105-1.014-.053-1.051-.18-.657.064-1.3.154-1.807.23-.07.01-.09-.087-.022-.103.75-.17 1.537-.29 2.238-.37a1.636 1.636 0 0 0-1.09-.203c-.433.065-.815-.021-1.178-.108-.271-.065-.535-.129-.803-.13z"/></g><g><path fill="url(#pez7g)" d="M92.01 19.058c.077.143.148.28.184.359l.016-.003c-.036-.166-.054-.232-.2-.356z"/></g><g><path fill="url(#pez7h)" d="M90.46 18.983v.001c.022.167.101.242.226.354a6.222 6.222 0 0 0-.208-.343l-.018-.012z"/></g><g><path fill="url(#pez7i)" d="M97.18 9.94V9.966c.284.026.167.084.36-.164a5.63 5.63 0 0 1-.36.138z"/></g><g><path fill="url(#pez7j)" d="M52.95 24.543h-.034a4.522 4.522 0 0 0-1.006.115c-.064.015-.047.108.019.103 2.2-.152 3.45.429 4.44 1.09l-.38-.625c-.87-.375-1.983-.683-3.04-.683z"/></g><g><path fill="url(#pez7k)" d="M61.36 34.81c-.04.054.043.117.091.069a3.71 3.71 0 0 0 .257-.288l-.093-.151a7.53 7.53 0 0 1-.254.37z"/></g><g><path fill="url(#pez7l)" d="M56.645 26.293l-.222-.364a.347.347 0 0 0 .222.364z"/></g><g><path fill="url(#pez7m)" d="M60.774 33.415c-.043.048.022.115.077.08.045-.031.088-.062.13-.094l-.078-.13-.129.144z"/></g><g><path fill="url(#pez7n)" d="M64.517 39.28h.046l-.179-.297a3.17 3.17 0 0 1-.512.04c-.323 0-.606.022-.862.052.243.045.485.086.731.131.132.025.603.059.776.074z"/></g><g><path fill="url(#pez7o)" d="M57.426 28.67a6.166 6.166 0 0 0-2.565.52c-.06.026-.025.116.041.097.38-.11.878-.218 1.453-.26-.252.07-.576.097-.562.181.026.178.92-.147 1.46-.184.244.016.799.09 1.171.183l-.459-.752c-.173.072-.35.145-.539.216z"/></g><g><path fill="url(#pez7p)" d="M58.543 29.411c.072.003.142.009.205.015.116-.073-.057-.15-.328-.217z"/></g><g><path fill="url(#pez7q)" d="M57.968 28.463l.129-.057a6.456 6.456 0 0 1-.277-.187l.148.244z"/></g><g><path fill="#2b2a29" d="M55.93 18.537c-.092-.277-.11-.396-.208-.563h-1.506c-.005.007-.006.012-.016.02.632.307 1.377.474 1.73.542z"/></g><g><path fill="#2b2a29" d="M58.098 18.567c.196-.228.393-.438.573-.593h-.604a6.145 6.145 0 0 0-.497.593z"/></g><g><path fill="url(#pez7r)" d="M60.98 33.407l.633 1.037c.118-.185.238-.388.354-.613l-.509-.833a4.312 4.312 0 0 1-.478.409z"/></g><g><path fill="#2b2a29" d="M58.751 17.99c-.16.142-.322.356-.491.578h.131c.486-.346 1.253-.332 1.848-.439a1.04 1.04 0 0 0 .416-.155h-1.707c-.071.035-.15.04-.197.017z"/></g><g><path fill="#2b2a29" d="M57.437 18.567c.155-.2.33-.407.512-.593h-.477a2.29 2.29 0 0 0-.282.593z"/></g><g><path fill="#2b2a29" d="M54.136 18.035a.283.283 0 0 1-.245-.021c-.014-.009-.017-.02-.027-.03l-.087.14-.007.012c.5.107.983.256 1.488.34a7.153 7.153 0 0 1-1.122-.44z"/></g><g><path fill="url(#pez7s)" d="M61.71 34.588l2.679 4.392c.239-.038.44-.1.61-.187l-2.89-4.74a6.53 6.53 0 0 1-.399.535z"/></g><g><path fill="#2b2a29" d="M56.878 18.567c.083-.167.174-.37.258-.593h-.776c.06.203.162.405.262.593z"/></g><g><path fill="#2b2a29" d="M57.1 18.325c.07-.116.136-.233.2-.351h-.064c-.044.122-.09.241-.136.35z"/></g><g><path fill="url(#pez7t)" d="M59.67 31.25l1.234 2.023c.13-.148.272-.325.408-.52l-.485-.798a2.392 2.392 0 0 1-.414.16c-.14.037-.038-.33.093-.686l-.273-.448c-.2.073-.386.166-.563.269z"/></g><g><path fill="#2b2a29" d="M53.612 20.134l-.173-.284.149-.243c-.11-.06-.088-.2.032-.226a.479.479 0 0 1 .107-.002l.227-.37c-.073.013-.147.026-.213.045.002.092-.015.227-.06.239-.09.022-.257-.113-.21-.296.043-.157.218-.127.263-.011.084-.023.175-.043.271-.06l.135-.22a.239.239 0 0 1-.059-.23c.04-.148.218-.135.26-.016.052-.01.104-.016.156-.022a15.28 15.28 0 0 0-.78-.219l-.009.005-.998 1.624.244.398c.465.062.546.04.658-.112z"/></g><g><path fill="url(#pez7u)" d="M56.65 26.296l.504.826c.281.043.559.089.806.128l-.435-.709a3.073 3.073 0 0 1-.6-.31c-.052.098-.166.109-.275.065z"/></g><g><path fill="url(#pez7v)" d="M56.56 26.033c.008-.038-.004-.07.01-.108a2.69 2.69 0 0 0-.2-.08z"/></g><g><path fill="#2b2a29" d="M73.617 29.487c.005.025.005.042.008.069l.384-.628-.965-1.576a11.69 11.69 0 0 0-.038.318c-.07.664.478 1.188.611 1.817z"/></g><g><path fill="url(#pez7w)" d="M53.363 20.635c-.064.001-.12 0-.173-.002l2.8 4.592c.308.134.588.273.822.413a.303.303 0 0 1 .05-.174l-1.46-2.398c-.14-.09-.285-.18-.439-.274-.056-.036-.004-.119.057-.091.072.033.152.077.228.117l-1.423-2.337c-.093.086-.224.147-.462.154z"/></g><g><path fill="#2b2a29" d="M68.12 20.502c.231-.023.433-.101.637-.145l-1.46-2.383H65.76c.056.056.115.116.18.19.17.189.439.3.713.403h.281l.088.146c.167.07.322.149.44.254.582.522.534.825.436 1.173l.222.362z"/></g><g><path fill="#2b2a29" d="M70.899 32.856a.29.29 0 0 1-.069.077l-3.9 6.363h-1.633l-.029-.046a11.09 11.09 0 0 1-.708.028l.372.611h2.362l4.674-7.626c-.403.173-.852.24-1.07.593z"/></g><g><path fill="url(#pez7x)" d="M52.96 20.254l.232.38c.053.001.109.002.173.001.238-.007.37-.068.462-.154l-.209-.34c-.112.151-.192.173-.658.113z"/></g><g><path fill="url(#pez7y)" d="M57.15 27.126l.666 1.093c.088.062.18.126.277.187-.042.02-.086.039-.128.057l.459.752c.27.067.444.144.327.217a3.397 3.397 0 0 0-.204-.015l1.12 1.837c.177-.103.362-.197.563-.27l-2.274-3.73c-.248-.04-.525-.085-.806-.128z"/></g><g><path fill="url(#pez7z)" d="M61.61 34.44v.001l.093.151c.142-.17.276-.35.4-.535l-.14-.23a7.574 7.574 0 0 1-.353.613z"/></g><g><path fill="url(#pez7A)" d="M60.9 33.273l.078.13a4.31 4.31 0 0 0 .478-.41l-.148-.24a6.287 6.287 0 0 1-.408.52z"/></g><g><path fill="url(#pez7B)" d="M64.56 39.277H64.58c.228 0 .458-.013.687-.027l-.277-.456c-.17.087-.372.15-.611.187z"/></g><g><path fill="url(#pez7C)" d="M56.37 25.846a.629.629 0 0 1 .055.037c-.004.018 0 .032-.002.05l.221.363c.11.044.224.034.275-.065.149.11.367.213.601.31l-.659-1.08a.303.303 0 0 0-.05.174 7.226 7.226 0 0 0-.821-.413z"/></g><g><path fill="url(#pez7D)" d="M54.964 22.783c.153.094.298.185.438.274l-.153-.248c-.077-.039-.157-.083-.228-.117a.058.058 0 0 0-.025-.005c-.048 0-.08.066-.032.096z"/></g><g><path fill="url(#pez7E)" d="M60.407 32.118a2.39 2.39 0 0 0 .414-.159l-.32-.526c-.132.356-.233.723-.094.685z"/></g><g><path fill="#2b2a29" d="M58.947 26.095c.221.214.468.416.796.622.067.043.06.063 0 .063-.248 0-1.392-.32-2.163-.69.432-.004.908-.021 1.367.005zM57.4 25.96l.005.001-.005.007zm0 0c.082-.072.072-.157.042-.22.426-.072.81-.059 1.182.023.086.093.172.183.26.27-.62-.037-.928.005-1.479-.072zm.893-1.205l.003-.02c.462.214.939.587 1.298.904a.056.056 0 0 1-.036.014.064.064 0 0 1-.033-.012c-.347-.248-.772-.56-1.232-.886zm-.85.116c.038-.036.1-.14.096-.218.219.199.402.38.566.551-.22-.1-.439-.21-.663-.333zm-.09-1.759a2.876 2.876 0 0 1-.616.198c.038-.202-.315-.148-.295.096.017.213.313.19.297.001.264-.045.597-.15.884-.259.177.022.343.039.484.052.094.198.192.401.299.605a2.821 2.821 0 0 1-.665-.304c.171-.193-.068-.409-.243-.24-.181.172-.088.425.025.456.115.03.173-.15.173-.15l.006-.012c.285.184.567.305.775.38.205.377.436.754.696 1.106a6.625 6.625 0 0 0-.825-.46.28.28 0 0 0-.002-.181c-.055-.192-.402-.202-.498.05a36.9 36.9 0 0 0-1.666-1.11c.128-.02.158-.14.107-.228.11-.027.218-.05.325-.072.046.087.123.136.184.136.057 0 .101-.042.097-.137.149.028.305.052.458.073zm.383-.214l.041.014c-.08.052-.172.114-.274.174a5.216 5.216 0 0 1-.512-.085 9.05 9.05 0 0 1 .745-.103zm26.678-.204c-.028-.043.041-.088.075-.048.49.564 1.36 1.79 1.705 3.69.01.051.095.042.092-.012-.076-.918-.347-2.377-1.259-3.449-.03-.037.021-.09.064-.062.075.05.602.54.695.763.101.24.237.233.347.384.354.469.776 1.027 1.027 1.849.016.05.099.033.09-.019a6.563 6.563 0 0 0-.163-.696.335.335 0 0 1 .136-.372c.28-.195.481.074.856.15.249.052.277.28.395.465.634 1.013-.116.917-.34 1.973-.113.526-.453.372-.785.218-.334-.155-.658-.309-.737.223-.177 1.205-.766.527-1.359 1.108-.324.316-.534.195-.782.075-.207-.1-.44-.2-.789-.048-.767.335-1.027-.826-1.728-.972-.702-.149-1.089-.48-1.074-1.165.005-.253.146-.508.423-.683.865-.559 2.17-1.66 2.15-2.746-.006-.366.537-.487.704-.158.383.743.841 2.043.66 3.767-.002.028.023.046.049.046.018 0 .036-.01.041-.031.23-.79.54-2.533-.493-4.25zm-27.76-.16c.044.005.089.012.134.02.193.087.385.162.567.225a1.815 1.815 0 0 1-.504-.015.153.153 0 0 0-.17-.036 2.022 2.022 0 0 1-.254-.094.192.192 0 0 0 .03-.052.083.083 0 0 0 .056.022c.06 0 .12-.053.14-.07zm-.457-.163l-.065-.158c.16.004.322.006.482.006a.287.287 0 0 0-.186.203 8.097 8.097 0 0 0-.231-.05zm.562-.154c.357-.005.69-.02.926-.03.063.163.13.334.204.515-.371-.03-.802-.148-1.122-.233.11-.078.084-.21-.008-.252zm2.508-.453c-.023.095.072.195.203.164a5.285 5.285 0 0 1-.528 1.315c-.16-.265-.27-.462-.392-.694.152-.16.428-.454.717-.785zm-2.6-.318c.297-.008.557-.019.731-.028l.148.298c-.038.038.02.142.035.185a7.5 7.5 0 0 1-.914-.455zm1.499.333c.114-.122.306-.323.521-.563-.06.483-.174.897-.244 1.123a24.628 24.628 0 0 1-.277-.56zm6.276 3.086c.395-.782 1.161-.929 1.836-1.367.516-.335.95-.506 1.23-.722.648-.5.512-1.35.891-1.608a.36.36 0 0 1 .106-.04c.287-.072.784.158 1.252.854.036.054.072.117.109.176l.344.562c.257.32.58.41 1.227.609.817.247 1.552 1.253 1.59 2.029.03.632.011 1.214-.178 1.667-.088.215-.213.4-.394.548-.25.206-.598.338-1.086.37-.721.05-1.514.292-.103.348.605.024 1.042.14 1.344.262.313.129.502.258.626.46.072.121.123.265.162.45a.994.994 0 0 1 0 .474.865.865 0 0 1-.248.402c-.235.23-.556.373-.66.628-.19.463-.11.762-.754.626l-.06-.037c-.146-.087-.55-.296-.816-.13-.329.206-.929 1.003-1.112.404-.185-.598-1.817-.83-2.24-.588-.421.241-.685.206-.787-.377-.102-.585.034-.492-.556-.86-.59-.368-.546-.372-.535-.826.013-.454-.4-.13-.434.294-.032.407-1.274-.403-1.039-1.145.106-.335.37-.579.687-.584.654-.007 1.541.892 1.886 1.167.328.26-.273-.963-.987-1.508-.045-.033-.01-.102.043-.093 1.384.226 2.785 1.524 2.605 1.179-.874-1.678-2.723-1.582-2.197-1.678 1.318-.234 2.691.196 3.436.496.061.024.107-.058.05-.093a5.843 5.843 0 0 0-2.28-.78c-.257-.032-.847-.015-1.36 0-.492.017-.913.034-.901.005.98-.368 2.574-.462 3.25-.387h.009c.059 0 .075-.086.013-.104-.827-.224-4.648.257-3.969-1.083zM56.1 20.973a.23.23 0 0 0-.166.123c-.036.078-.001.157.129.116l.033.024c-.1.032-.199.059-.296.074.024-.11-.095-.16-.196-.097a.151.151 0 0 0-.228.003l-.023-.101c.257-.065.501-.108.747-.142zm.253.293c.319-.102.636-.228.826-.308l.167.34c-.175.017-.354.036-.528.036-.161 0-.318-.017-.465-.068zm.519-.372c-.166.09-.413.212-.67.305l-.016-.009c.138-.034.132-.213-.024-.222h-.03c.241-.032.483-.054.74-.074zm-1.167-.08c.097.027.198.045.298.061-.287.057-.56.115-.717.156a.238.238 0 0 0-.01-.025l.429-.192zm.455-.204c.186.04.369.086.555.136a2.62 2.62 0 0 1-.492.053c-.125 0-.25-.012-.378-.041.106-.05.21-.096.315-.148zm-.363-.123a4.2 4.2 0 0 1 .78-.18c-.164.086-.325.166-.492.245-.097-.02-.193-.043-.288-.065zm.413.102c.209-.1.415-.199.618-.311.073.144.146.287.217.43a5.087 5.087 0 0 1-.835-.12zm32.223-.243a.04.04 0 0 1-.007-.08c.391-.112.49-.234.805.106-.01.005-.022.01-.033.017a.402.402 0 0 1-.207.049c-.165 0-.357-.063-.558-.092zm-33.19-.111c.005-.025-.013-.05-.033-.068.48-.076 1.108-.054 1.475-.032-.45.101-.865.19-1.31.263-.04-.009-.078-.017-.113-.023.022-.039.04-.1-.02-.14zm3.814-.482c-.02.05-.01.122.029.12-.432.22-.851.395-1.288.556.407-.341.785-.58 1.26-.676zm-3.654-.216c.342-.043.695-.015 1.05.028.088.162.176.325.26.489-.373-.023-1.044-.048-1.552.037-.007-.016-.024-.032-.053-.05.025-.218.074-.41.295-.504zm33.185.029c-.253.015-.475.02-.632.017-.047 0-.06-.062-.016-.081.265-.108.425-.198.648.064zm-13.94.149c-.45.129-.908.265-1.369.412.464-.24.927-.488 1.383-.75a1.15 1.15 0 0 0-.014.338zm1.17 5.815c-.125-.603-.882-.661-.42-1.187.462-.527-1.033-.624-.305-1.081.728-.461.55-.795.058-.823-.49-.027-.716-.791-.159-1.301.557-.508-.22-1.458 1.021-1.803.642-.177 1.39.17 2.295.375.08.017.07.133-.013.137a4.14 4.14 0 0 1-1.175-.078c-.082-.02-.127.09-.052.128.392.207 1.103.445 2.223.364.342-.025.531.381.283.604-.482.43-1.192.939-2.067 1.214-.084.026-.051.15.039.135.52-.089 1.276-.334 2.188-.957.256-.176.622.027.584.326-.066.518-.25 1.196-.741 1.707-.052.055.013.143.086.112.25-.104.625-.372.93-1.067.12-.27.527-.286.669-.028.329.591.617.66.628.91.022.533-.217 1.11-.688 1.729-.63.827-1.397 1.516-2.392 1.19-.567-.187-.788-.156-1.41-.045a3.998 3.998 0 0 1-.689.073c-.53 0-.8-.19-.892-.634zm12.833-6.412c.16.033.34.077.506.132.129.043.174.124.233.23-.063.011-.118.015-.17.016-.27 0-.4-.133-.68-.305.037-.023.075-.048.111-.073zm-.81-.114c-.475.2-.637.333-.789.333-.134 0-.26-.106-.584-.363.322-.004 1.129-.044 1.373.03zm.954.017c.026-.017.05-.034.07-.05.2-.007.396-.02.592-.04.21-.02.403.181.723.289l-.037.08c-.159.056-.319.071-.455-.048-.044-.039-.099-.032-.163-.025a.718.718 0 0 1-.08.004.32.32 0 0 1-.13-.025 5.864 5.864 0 0 0-.52-.185zm1.676-.225c.413-.072.445.103.659.393-.03-.015-.063-.013-.101-.01h-.037a.304.304 0 0 1-.205-.076 1.893 1.893 0 0 1-.316-.307zm1.045.242c.067.025.12.062.163.118.205.266.063.386.242.38.048 0 .09.013.127.024a.284.284 0 0 0 .111.024c.069.152.29.127.196-.01l.057.015c.085.164.185.318.305.442.474.48.09.638-.352 1.216-.443.578.686.69.11 1.2-.576.508-.368 1.01-1.162.97-.796-.039.296.602-.469.678-.274.027-.523-.092-.721-.211-.357-.214-.556-.428-.47.196.067.506-.594.221-1.188-.064-.475-.23-.908-.457-.884-.28.1.783-1.59.243-1.457-.667.13-.902-.087-.27-.6-.887-.287-.346.242-.774.562-.456.362.36.641.9.795 1.713.01.047.08.047.09 0a3.496 3.496 0 0 0-.653-2.769c-.026-.034.01-.08.052-.064 1.227.438 1.99 1.755 2.266 2.316.021.044.093.024.085-.023-.182-1.125-.924-1.869-1.146-2.07-.025-.024-.011-.064.022-.072 1.337-.26 2.571.267 3.14.57.046.024.092-.037.052-.07a3.787 3.787 0 0 0-1.027-.565c-.267-.102-.181-.349-.316-.39.27-.103.048-.4-.122-.279-.014-.028-.03-.055-.046-.084.083-.04.164-.082.243-.124l.12.05c-.105.244.355.212.32-.08-.023-.206.156-.356.334-.442.117-.058.146-.298-.025-.24-.219.076-.433-.086-.565-.197.313-.036.405-.086.64.152.09.092.213.458.19.579-.012.054.067.109.138.068.076-.043.077-.14.027-.17-.121-.074-.16-.187-.187-.313.191.183.092.319.28.29.023.052.049.106.071.162-.103.012-.119.172.025.173.1 0 .16-.092.128-.149-.033-.054-.107-.065-.172-.205l.062-.058a.893.893 0 0 0 .122.072c-.01.012-.022.035-.014.076.021.116.333.025.422.018.244-.002.158-.33-.013-.15l-.013.01c-.194-.237-.357-.518-.48-.695.129.072.337.179.585.272zm.208-.344c.153.238.286.453.395.717l-.056.024c.016-.06-.116-.218-.186-.149a1.455 1.455 0 0 1-.06-.15l.02.006c.044.12.174-.018.084-.121-.053-.064-.142-.008-.113.062l-.009-.003a2.51 2.51 0 0 1-.075-.386zm-.666-.003c.25-.046.357.109.479.274a4.328 4.328 0 0 1-.565-.259c.028-.006.057-.01.086-.015zm.32-.061l.217-.04c.023.105.067.28.124.449-.153-.095-.246-.255-.34-.41zm-.408-.598c-.077.317-.092.419-.454.484.086-.106.245-.294.454-.484zm-.452-.065c-.124.458-.057.568-.597.624.384-.741.502-.52.597-.624zm.992.349c-.184.04-.368.079-.553.116.1-.596.15-.405.336-.549.146.138.16.306.217.433zm-.46-.574a.445.445 0 0 1-.123.231c-.197.17-.35.34-.442.452.046-.198.087-.497.169-.771zm-1.183.16c.227-.323.351-.3.746-.253-.027.08-.05.165-.075.245-.013-.115-.139-.16-.188-.13-.054.033.008.114.012.129-.243.254-.42.532-.52.708l-.046.004c.057-.17.155-.443.28-.678.2.054.187-.093.113-.132-.11-.06-.226.013-.228.067-.001.094.024.14-.02.233-.185.393-.128.514-.613.547l.315-.362a.12.12 0 0 0 .096.052c.061 0 .113-.053.087-.12a.32.32 0 0 1 .041-.31zm-32.32 1.57c.412-.066.728-.203.89-.431.079-.114.16-.194.248-.26a.253.253 0 0 0 .067-.042c.138-.083.308-.13.541-.174.201-.038.45-.075.771-.134.647-.116.847-.249 1.078-.46.126-.115.262-.253.487-.425.375-.284.771-.135 1.144.017.259.104.507.209.731.168.422-.08.521.14.781.24.079.03.168.05.286.05.747-.008.795.123 1.3.544.099.08.205.168.341.27 1.29.962-.073.74.166 2.011.076.398.575.086.56.793-.016.71-.029.694-.548 1.096-1.608 1.242-2.556 1.105-2.993 3.505-.229-.732-.787-1.574-.545-2.98.011-.06-.079-.086-.105-.031-.723 1.417-.185 2.122-.395 2.172-.3.072-.445-2.143-.242-3.343.012-.06-.08-.086-.106-.03-.304.673-.837 2.247-.172 4.007.023.06-.062.098-.098.046-.406-.563-1.19-1.887-1.567-4.067-.011-.065-.115-.055-.11.01.05.992.262 2.671 1.056 4.09.068.119-.021.112-.216-.023a51.84 51.84 0 0 1-1.325-1.87c.074-.193.18-.529.214-.926l.013.001s.187.07.232-.033c.044-.104-.104-.327-.36-.303-.248.024-.221.335.045.33-.03.338-.137.627-.222.815a26.093 26.093 0 0 1-.371-.57c.181-.256.497-.716.74-1.156.228.188.306-.228.021-.348-.206-.086-.334.183-.098.282l.015.013a8.91 8.91 0 0 1-.747 1.101l-.042-.067c.164-.325.403-.862.537-1.462.034-.01.216-.026.211-.12-.006-.097-.21-.221-.4-.118.118-.14.24-.285.352-.429.237.18.295-.243 0-.346-.214-.075-.32.202-.08.287l.023.016c-.341.425-.785.824-1.054 1.107.082-.276.199-.738.246-1.26.164-.185.334-.386.49-.582.25.247.352-.207.032-.317-.207-.072-.312.184-.102.278-.128.132-.284.256-.403.396l.004-.184c.212-.132-.116-.27-.264-.08-.09.12.052.235.17.157-.054.39-.377.668-.67.95a97.336 97.336 0 0 1-.489-1.047c.602-.22 1.161-.507 1.754-.768-.055.242.32.048.302-.195-.01-.136-.165-.133-.246-.046.035-.19-.153-.244-.262-.107-.061.076-.073.126-.071.154-.207.04-.426.126-.633.228.274-.239.532-.466.68-.605.149.168.405-.262.15-.353-.187-.067-.408.223-.242.322-.485.449-.94.792-1.455 1.168.209-.283.583-.756.942-1.058.024.205.36-.07.266-.275-.083-.179-.374.04-.3.19-.383.318-.778.823-.992 1.113-.08-.17-.157-.34-.238-.507.088-.137.178-.268.276-.396zm37.272-2.274c-.308.314-.675.49-1.118.625.381-.358.77-.68 1.204-.979-.016.118.066.196-.086.354zm-18.068.832c1.157-.847 2.177-1.806 2.9-2.919.726.824 1.85 1.202 2.37 1.674.505.456.083.74-.78.289-.864-.45-2.054-1.402-1.684-.942.37.458 1.17 1.1 1.693 1.431.525.327.73.514.148.652-.58.139-.717.14-1.327-.082-.58-.209-.313.46 1.52.495a4.456 4.456 0 0 1-1.898.404c-1.32 0-2.52-.51-2.942-1.002zm-20.637-.748c-.316-.909-.424-1.726-.088-2.678a.326.326 0 0 0 .164.045c.084 0 .147-.033.15-.055.003.913-.08 1.786-.226 2.688zm20.876-1.296c.032-.02.018-.069-.022-.073-1.443-.19-1.752-1.805-.14-1.84.034 0 .056-.034.039-.062-.344-.572-.015-1.158.607-1.334.361-.101.831-.174 1.385-.378.034-.014.072-.028.11-.04.286.435.35.969.114 1.612-.404 1.082-1.303 2.09-2.393 2.984-.068-.274-.112-.573.3-.87zm10.434-3.813c.247.103.437.053.619.004.267-.072.519-.144.914.26.245.25.415.621.462 1.026.093.78 1.086.478.825 1.167-.258.69.717 1.784-.173 2.582-.888.801-.558 1.22-1.359 1.245-.401.012-.614.245-.836.245-1.106.005-1.789-.129-2.043-.262-.267-.14-.07-.278.59-.262.481.013.915.12 1.162.197.044.014.08-.044.041-.073a2.607 2.607 0 0 0-1.553-.546c-.044 0-.061-.055-.025-.077.984-.624 2.184-.735 2.727-.75.05 0 .06-.072.008-.083-1.006-.237-2.07.135-2.53.332-.045.02-.086-.036-.05-.069.67-.597 1.72-1.142 2.338-1.437.05-.023.016-.095-.036-.078-.805.288-1.793.858-2.362 1.21-.044.026-.093-.032-.057-.067.89-.846 1.475-1.85 1.778-2.457.022-.046-.049-.083-.08-.04a10.68 10.68 0 0 1-2.83 2.817c-.041.028-.093-.024-.058-.062 1.198-1.293 1.612-2.481 1.751-3.042.011-.048-.062-.072-.084-.028-.593 1.18-1.19 1.865-1.558 2.216-.226.215-.62.065-.631-.235-.025-.533.388-.604.475-1.003.194-.9-1.93-1.358-.228-2.097.79-.343.46-.649.907-.673.193-.01.372.076.535.164.153.083.294.165.42.165a.244.244 0 0 0 .139-.042c.276-.184.339-.44.802-.247zm-7.643 2.734c.433-.711.764-1.804.92-2.966.52.054.963.319 1.163.993.13.439 2.92 3.49 1.344 3.595a.902.902 0 0 1-.088.003c-.876 0-2.444-.801-2.999-1.343a2.23 2.23 0 0 0-.34-.282zm18.547-3.497c.25.383.468.762.652 1.173-.072-.016-.115.015-.146.053-.345-.368-.463-.757-.506-1.226zm-1.021-1.248l.045-.031c.216-.05.42-.082.644-.119-.16.078-.44.202-.67.252.005-.011.008-.024 0-.035.018-.032 0-.055-.02-.067zm.386-.269c.121-.081.248-.158.362-.207-.002.078-.004.157-.008.234a5.435 5.435 0 0 0-.354-.027zm.366-.527l-.008.176a5.64 5.64 0 0 0-.433.008c.116-.099.28-.14.441-.184zm.012-.344l-.01.278a8.742 8.742 0 0 0-.338.12c.129-.172.259-.31.348-.398zm.263-.025l.011-.304c.081.09.22.256.351.463a18.285 18.285 0 0 0-.362-.159zm-2.776.085c.027-.103-.08.002-.189.107-.094.09-.189.18-.204.138-.006-.018-.034-.023-.048-.008-.128.153-.465.53-.766.724-.026.016-.057-.011-.04-.036.26-.376-.358.21-.854.406-.028.01-.051-.02-.033-.042.09-.1.195-.294.098-.224-.014.009-1.145.763-1.225.618-.008-.017.204-.204.083-.164-.298.096-1.006.302-1.259.165-.324-.175-.542-.025-.95.07-.152.033-.984.106-.989.097.266-1.414 1.359-2.515 1.59-1.617.113.433.28-.153 1.392-.292.062-.009.018.044-.029.097-.05.055-.097.11-.032.096.19-.034.648-.123.975-.237.128-.043-.116.205-.114.211.02.063.295.017.527-.028.173-.033.323-.067.33-.057.022.032-.104.107-.024.117.25-.035 1.172-.038 1.895-.583.084-.064.045.126-.134.442zm2.003-.144c.144-.111.347-.267.529-.342l-.014.288c-.11.037-.283.099-.47.17.035-.036.019-.1-.045-.116zm.826-.745c.14.107.34.281.508.499-.066.009-.09.071-.059.11-.199-.096-.384-.18-.486-.224zm-.305-1.403c-.247.27-.502.46-.888.544.002-.035-.01-.075-.064-.093.308-.176.468-.186.952-.45zM69.781 8.673a.107.107 0 0 0-.01-.207c-.128-.028-.229-.099-.13-.196 1.235-1.225 3.631-1.948 4.475-2.195.091-.027.108-.146.03-.194-.08-.048-.063-.167.028-.193 2.501-.74 3.765.762 4.167 1.307.048.064.106.044.165.022.056-.019.112-.04.162.018.366.436.89 1.058 1.12 1.434.051.087.137.05.214.013.069-.032.129-.064.152-.013.824 1.854.41 4.6-.613 6.29-1.129 1.865-3.119 3.3-5.224 4.501 2.834-1.846 5.71-4.216 5.754-6.266.065-3.011-3.166-3.585-6.551-2.95-2.368.443-8.888 1.636-5.997 6.404-2.279-1.339-1.593-5.244.392-6.816.668-.53 1.411-.818 1.866-.959zm26.536-4.805a2.49 2.49 0 0 1-1.758.874c-.315-.766-.016-.749.508-.732.076.002.157.006.24.006.297 0 .638-.03.972-.192.031-.015.06.02.038.044zm1.108-.407c.392-.355.651-.785.829-1.16-.024.396-.097.869-.297 1.215-.324.563-.43.6-.728 1.015-.416.577-.219 1.12-1.08 1.25-.206.029-.27-.106-.434-.254-.38-.344-.783-.24-.898-.288-.056-.023-.198-.355-.225-.422.61 0 1.348-.313 1.76-.753.16-.172.643-.624.702-.56.071.078-.459.284-.595 1.284-.004.021.014.033.031.033.012 0 .026-.006.03-.02.1-.322.335-.815.905-1.34zm1.33-1.458c.252.75.212 1.738.134 2.25-.053.016-.201.079-.284.079-.04 0-.064-.016-.053-.06.106-.423.207-1.778.202-2.269zm-4.67.034c.63-.077 1.287-.067 1.707-.054-.276.169-1.097.658-1.785.854-.037.012-.025.065.013.06.987-.138 1.907-.848 2.886-.832-1.063.792-1.583 1.146-2.342 1.146-.367 0-.787-.082-1.35-.236-1.482-.405.243-.864.872-.938zm4.384-.615l.03.044c.023.32.044.854-.016 1.42-.036.33 0 1.31-.4 2.055-.458.844-1.177 1.294-1.26.794l-.008.007c.154-.134.276-.33.37-.62.33-1.013 1.496-1.162 1.284-3.7zM90.94.965a39.39 39.39 0 0 0-1.815 3.746 3.647 3.647 0 0 0-1.331-1.655c-1.185-.814-.82-.227-.713-1.57A3.523 3.523 0 0 0 86.9.02h-.837c.089.185.153.38.184.58.11.725-.06 1.604-1.172 1.375-1.179-.242-2.907-.564-4.216-1.904 0 0 .84 1.79 4.183 2.561 1.972.454-1.068 1.803-2.254 1.527a.034.034 0 0 1-.01-.063c.095-.054.212-.185.103-.172-.914.11-1.778-.467-2.042-.663-.077-.058.137-.087.141-.09-1.057-.219-1.763-1.18-1.932-1.435-.046-.069.141-.052.242-.092.144-.055-.318-.176-.661-1.054-.018-.042.016-.04.05-.038.02 0 .04.002.049-.008.037-.04-.122-.173-.244-.524h-.266c.055.17.12.325.177.425-.138.236.32.88.485 1.07a.259.259 0 0 0-.052.351c.4.601 1.024 1.18 1.745 1.444a.283.283 0 0 0 .105.144c.507.374 1.169.682 1.828.723.02.1.097.19.22.219 1.351.32 2.578-.221 3.561-1.197.457-.453.584-.189 1.086.213 1.024.821 1.303 1.697 1.309 2.394-.569 1.47-.98 2.788-1.353 3.975a18.48 18.48 0 0 1-.777 2.072c-.126.07-.248.105-.553-.062-.71-.385-.888-.302-1.25-.152-.341.145-.417.508-.957.776-.196.097-.388.194-.531.32a.388.388 0 0 1-.538-.028 6.85 6.85 0 0 1-.471-.606c-.474-.67-.974-.852-1.484-.813.084-1.133-.013-2.256-.368-3.054-.068-.15-.323-.479-.531-.067-.294-.479-.547-.971-.904-1.398a.396.396 0 0 0-.396-.13 3.965 3.965 0 0 0-1.361-1.094c-.992-.481-2.056-.35-3.108-.04a.375.375 0 0 0-.268.45c-1.471.449-3.336 1.145-4.383 2.182-.122.121-.158.297-.064.442-.588.215-1.174.467-1.655.848-2.04 1.616-2.897 4.362-1.192 6.526.665.845 1.667 1.198 2.755 1.223 1.184.03 2.6-.295 3.334-1.236.21-.27-.034-.649-.384-.597-.068.01-.222.023-.338.022-.015-.214-.178-.366-.439-.336-.311.035-.649.029-.957-.044.007-.208-.149-.353-.372-.366a7.677 7.677 0 0 1-1.114-.135.34.34 0 0 0-.166-.33c-.488-.318-.787-.712-.63-1.273.646-2.31 8.575-3.019 10.552-.863l-.034.015c-1.111.412-2.198.256-2.362 1.409-.064.468-.107.2-.463.454-.355.253-.753 1.18-.317 1.656.253.277.505.26.533.693.052.846-.011.46-.21 1.14l-.02.083c-1.33.964-2.816 1.773-3.996 2.373-.526.267-1.433.683-1.898.968a2.547 2.547 0 0 0-.625-.4.912.912 0 0 0-.63-.054c-.205.045-.406.123-.636.146-.1.01-.202.014-.313-.004.021-.13.059-.245.09-.358.098-.348.147-.65-.435-1.173a1.502 1.502 0 0 0-.44-.253c-.12-.052-.246-.099-.37-.147-.275-.103-.542-.214-.712-.404-.065-.073-.125-.133-.181-.19-.55-.542-.7-.313-1.193-.308-.152.001-.206-.117-.283-.233-.091-.141-.218-.284-.59-.218-.145.027-.29-.137-.491-.302-.334-.27-.825-.544-1.747.048-.532.34-.443.769-.8 1.013a1.04 1.04 0 0 1-.418.155c-.595.108-1.362.094-1.847.44-.074.052-.14.112-.199.18a2.277 2.277 0 0 0-.127.068c.066-.082.13-.165.194-.249.17-.222.33-.436.493-.577.047.025.124.018.195-.017a.25.25 0 0 0 .127-.13c.06-.14-.097-.231-.203-.152a.562.562 0 0 0-.154.238c-.015.012-.033.03-.049.044-.18.155-.377.366-.572.594-.127.149-.25.302-.369.456-.055.036-.11.075-.16.114-.127.02-.265.027-.41.027.11-.173.251-.382.41-.597.153-.206.322-.412.497-.594.15-.157.305-.299.459-.397.074.06.198.131.236.104.074-.052.067-.258-.115-.338-.138-.06-.246.056-.173.187-.172.112-.348.27-.517.444a7.05 7.05 0 0 0-.513.594c-.17.218-.318.429-.43.595l-.007-.001c.07-.198.126-.4.191-.594.07-.21.155-.413.282-.594.067-.096.143-.187.241-.27.074.06.193.126.23.1.071-.053.066-.26-.116-.34-.146-.06-.248.079-.177.183a4.915 4.915 0 0 0-.114.101c.111-.276.219-.533.306-.71a.259.259 0 0 0 .216-.22c.02-.154-.158-.2-.239-.1-.038.047-.106.24-.077.295-.163.319-.302.644-.458.961-.06.119-.122.236-.187.352.042-.11.086-.23.127-.352.08-.237.156-.493.205-.75a.251.251 0 0 0 .135-.192c.019-.154-.158-.201-.24-.1 0 .002-.209.358.028.319a4.711 4.711 0 0 1-.22.723 6.937 6.937 0 0 1-.26.594c-.044.094-.088.18-.123.249l-.132-.249c-.1-.188-.202-.39-.262-.594a1.076 1.076 0 0 1-.048-.47c.179-1.17.182-2.294.28-3.465.091.037.229.064.321-.061.144-.198-.045-.558-.414-.59-.323-.028-.501.27-.398.455-.387-.151-.735.219-.557.468.104.146.206.184.272.19-.152.413-.213.864-.227 1.3-.221-.61-.44-1.19-.586-1.522.1-.042.253-.131.205-.312-.072-.26-.537-.378-.837-.106-.303.27-.082.707.224.663a.562.562 0 0 0 .227-.079c.463 1.088.71 2.087.969 3.215-.404-.502-1.05-1.392-1.32-2.192.097.006.22-.016.266-.152.078-.229-.217-.526-.583-.457-.37.07-.421.501-.167.605a.43.43 0 0 0 .25.037c.263.807.895 1.693 1.314 2.225.081.102.135.178.175.248.1.168.116.287.207.564-.351-.068-1.097-.236-1.73-.544.011-.007.012-.013.018-.02.115-.132-.246-.2-.263-.2-.122-.001-.183.124-.096.209.01.01.012.022.027.03a.28.28 0 0 0 .246.022c.37.188.773.335 1.121.442-.505-.085-.988-.235-1.488-.34l-.004-.003c-.027-.057-.232-.127-.294-.13-.134-.003-.204.158-.066.238.117.07.24.04.31-.015 0-.002.005-.004.008-.005.202.048.482.129.781.218-.054.007-.106.013-.156.023-.043-.119-.222-.131-.261.016a.238.238 0 0 0 .06.23c.046.048.106.075.149.065.041-.01.059-.116.06-.206l.002-.025c.208-.032.407-.017.601.025.36.077.706.243 1.074.367-.501-.05-1.375-.112-2.021-.005a2.677 2.677 0 0 0-.271.06c-.046-.117-.222-.146-.263.01-.048.182.119.318.21.295.045-.012.062-.147.06-.239.064-.018.14-.032.212-.044.711-.126 1.765.001 2.222.066l.02.041c-.467-.02-.91.006-1.184.242a6.319 6.319 0 0 0-1.1.058.568.568 0 0 0-.184-.037.39.39 0 0 0-.108.002c-.12.026-.143.166-.032.226.01.006.016.017.031.019.169.05.307-.061.324-.145.257-.037.6-.01.951.004-.105.144-.01.064-.2.16-.362-.2-.74.007-.974.336-.045.062-.076.111-.108.153l.209.34c.156-.146.196-.367.458-.52a.207.207 0 0 1 .165-.025c.25.108.326.348.466.533l-.117.012c.022-.183-.356-.2-.418-.022-.085.244.43.327.387.11l.244-.028c.038.032.09.044.135.029-.037.065-.037.126-.008.178l-.03.023c-.022-.018-.07-.042-.171-.043-.174-.007-.265.173-.076.258-.122.007-.22.118-.116.21.081.07.213.088.307.067.077.103.213.107.283.042-.06.231.234.451.288.253.087.026.153-.026.173-.098.209.004.42.004.62.002.462.29.917.492 1.197.604-.403.02-1.01.098-1.576.085v-.028c.08-.23-.214-.324-.287-.121a.276.276 0 0 0 .155.347c-.055.123.063.26.176.22-.088.15.059.311.182.251.073-.035.098-.074.103-.1.076.035.158.065.24.089a.294.294 0 0 0-.023.146c-.145.03-.272.059-.361.084-.068-.218-.348-.046-.26.174-.253-.153-.49-.282-.713-.396l.153.249c.822.526 1.417.974 1.87 1.362a.337.337 0 0 0-.246.07c-.249.184-.206.525-.008.602.14.055.227-.043.273-.11.247.138.683.355 1.145.578a3.686 3.686 0 0 0-1.057.021c.001-.048-.018-.125-.122-.214-.117-.1-.305-.046-.394.089l.659 1.08c.721.3 1.611.549 1.25.774-.07.045-.397 0-.816-.064l2.274 3.73a3.79 3.79 0 0 1 .526-.154 6.77 6.77 0 0 0-.252.603l.32.525c.567-.269 1.095-.701 1.075-.55-.066.482-.315.955-.59 1.348l.148.24c.701-.682 1.126-1.452 1.11-1.191-.053.756-.308 1.45-.601 2.025l.14.23c.52-.76.884-1.517.906-1.293a3.992 3.992 0 0 0 .833 2.106c.042.051.127.001.1-.057-.576-1.15-.708-3.203-.505-2.778.287.606.89 1.206 1.353 1.611.05.044.127-.022.084-.072a7.553 7.553 0 0 1-1.394-2.64c-.02-.063.077-.099.107-.041a4.054 4.054 0 0 0 1.667 1.635c.32.169-.442-.603-.916-1.26.234.185.514.383.815.51.681.286.748.96 1.235 1.082.489.12.619.036.848.564.228.528.438.52.896.265.972-.539-.42 1.424-.456 1.615-.12.674-.1.74-.764 1.171-.943.618-.933 1.82-1.92 2.321l.277.455c.061-.005.121-.007.185-.013.086-.009.172-.007.259-.009.761-.644 1.012-1.648 1.68-2.084.704-.463.696-1.084.841-1.896.08-.452.564-.601.873-.958l.02-.004c.103-.28.109-.578.027-.871-.003-.011 0-.019 0-.028-.28-.328-.872-.499-1.347-.309l-.012-.006c-.825-1.263-.121-1.26.574-.842.577.345 1.024 1.053 1.713.86.255-.07.573-.018.748-.158a.268.268 0 0 0 .07-.075c.218-.353.666-.42 1.069-.594a1.45 1.45 0 0 0 .326-.183c.274-.209.335-.746.588-1.044.28-.332.92-.497.744-1.477-.004-.026-.003-.044-.008-.068-.133-.63-.682-1.153-.61-1.819.012-.114.024-.217.036-.315.2-1.602.4-1.158.358-2.012-.047-.938.063-2.311-1.491-2.58a3.988 3.988 0 0 1-.759-.192 45.01 45.01 0 0 1 3.201-1.296 1.057 1.057 0 0 0 .374 1.312c.096.063.15.153.158.263.024.308-.36.349-.301.71.058.364.614.43.42.824-.285.572.43.8.512 1.194.2.96 1.104.937 1.939.788.38-.068.654.093.92.256.317.191.624.385 1.087.187.774-.33.789-.437.824.341.032.755.611 1.075 1.397 1.241.56.116 1.12 1.195 2.124.76.22-.096.414-.008.618.082.293.128.606.258 1.044-.171.163-.16.227-.16.444-.146.954.067 1.233-.587 1.69-.608.047-.002.097 0 .147 0 .33.011.703.02.68-.94-.025-.927.998-1.021.342-2.11-.201-.333.283-.68.576-.568.253.097.46.02.555-.182a.378.378 0 0 1 .458-.191c.557.176 1.014.004 1.06-.343a.351.351 0 0 1 .278-.296c.344-.082.482-.31.66-.625.267-.47.66-.57.563-.995-.087-.381-.129-.604.063-.783 1.122-1.044.07-1.01-.38-1.95a.079.079 0 0 0 .014-.027c.112.09.166.02.16-.05-.004-.052-.042-.104-.113-.092-.127-.243-.36-.52-.495-.67.175-.029.338-.041.465.098.163.18.402.459.282.708-.019.037.03.127.123.127.07 0 .09-.061.057-.1-.077-.09-.082-.21-.113-.32.13.163.35.331.348.54-.004.165.237.163.177.034l-.148-.176a4.111 4.111 0 0 0-.411-.556c-.06-.072-.188-.363-.235-.438l.098-.014c.162.152.5.486.696.797a.326.326 0 0 1 .025.315c-.03.065.141.082.207.007.063-.07-.012-.132-.082-.114-.124-.336-.51-.765-.728-.988.247.157.73.324.649.67-.017.061.144.077.21.003.056-.065-.009-.138-.079-.115a1.095 1.095 0 0 0-.04-.075c.143.099.305.173.37.324.085.19.349.003.058-.104-.139-.052-.577-.421-.693-.525.154.102.535.293.605.38.073.085.238.038.156-.063-.146-.178-.203.108-1.015-.585.23-.076.256-.108.513-.105.343.002.868-.017 1.308-.125a.382.382 0 0 1 .285.04c.133.076.325-.088.235-.268-.086-.18-.326-.206-.41-.097-.09.117-.088.2-.284.237a5.842 5.842 0 0 1-1.182.088c.53-.221 1.015-.417 1.558-.571a.383.383 0 0 1 .364.083c.105.095.333.034.36-.162.031-.217-.177-.376-.325-.32-.123.047-.093.19-.309.248-.195.051-.44.122-.694.196.334-.244.438-.48.695-.471.196.006.293-.264.07-.39.124-.02.207-.192.088-.32-.137-.146-.37-.107-.417.02-.044.118.029.195-.142.329-.455.357-.912.688-1.344 1.087-.187.173-.52.2-.771.245.078-.142.22-.389.408-.614.084-.102.258-.114.3-.25.04-.123-.134-.11-.168-.006-.034.105-.315.411-.421.562.07-.138.336-.632.445-.727.232-.198-.085-.285-.09-.078-.004.163-.129.288-.223.428.002-.027.008-.054.009-.083.073-.002.106-.093.027-.133-.088-.047-.23.02-.194.073.21.297-.177.612-.348.846.117-.283.314-.814.303-1.17.073-.003.113-.092.03-.134-.096-.052-.197.014-.198.062-.002.106.354.032-.235 1.29l-.098.019c.015-.097.03-.23.033-.38 0-.1.161-.559.188-.76a.285.285 0 0 1 .036-.11c.134-.253-.2-.2-.12-.009.084.192-.056.423-.117.618a2.484 2.484 0 0 0-.026-.16c-.018-.08.063-.304-.082-.25-.088.035-.1.133-.066.161.263.242.02.988-.26.974-.231-.01.021-.172.078-.76.087-.017.109-.214-.01-.19-.08.017-.13.13-.106.187.094.201-.032.47-.091.652-.068-.187-.013-.502.013-.7.017-.149.244-.31.1-.398-.084-.052-.21.063-.17.15.07.153.006.343-.015.517-.022-.14-.097-.28-.05-.42.032-.096-.056-.155-.136-.08.015-.062-.036-.13-.104-.088-.077.044-.101.165-.065.207.098.102.116.207.14.339-.18-.15-.18-.35-.373-.27-.151.062-.473-.021-.725-.033 1.69-1.092-.031-2.087.168-2.615.079-.211.097-.436-.046-.629-.253-.34-.717-.257-.766-.666-.075-.65-.477-1.4-1.2-1.577-.125-.03-.473-.059-.793-.087l.105-.258c.38-.033.89-.086 1.014-.072.498.055.988.145 1.495.199 1.623.171 2.954-.042 4.434-1.327.427-.37.917-.938 1.107-1.47.148-.418-.204-.469-.339-.338-.398.45-.972.624-1.54.548-.062-.165-.227-.137-.37-.11l-.33.065c.02-.156-.152-.254-.305-.201-.196.067-.41.12-.624.167-.037-.095-.14-.147-.247-.134-.433.054-.84.205-1.2.437-.691-1.274-1.794.614-2.059 1.19-.237.515-.048.484-.887.658.126-.337.247-.69.362-1.056.302-.963.562-2.076.897-3.3a1.92 1.92 0 0 0 .043-.156c.447-1.598 1.028-3.382 2.004-5.274.3.236.655.478.678.911.041.757.13.76.355.89.395.23 1.536-.166 1.514.593-.03 1.105.062.775.339 1.408.195.451.392.425.663.4.112-.011.234-.021.376 0 .488.077.48.454.982.38.429.69 1.147.604 1.585.003.107-.15.2-.322.292-.52.317-.655.41-.797.829-.927a33.082 33.082 0 0 1-.4 1.763c-.146.589-1.098.79-1.619 1.038-.027-.181-.303-.037-.201.155.052.103.19.098.23.03.04.237.358.125.28-.041a1.78 1.78 0 0 0 .482-.185c-.164.186-.317.364-.4.471-.19-.125-.273.21-.02.272.202.051.273-.185.11-.249.28-.35.57-.619.9-.915-.091.22-.268.585-.486.822-.083-.153-.291.063-.144.213.136.14.314-.037.2-.15.155-.162.317-.402.451-.62a6.89 6.89 0 0 0-.14.79c-.035.023-.23.174-.393.41-.002 0-.068-.075-.114-.041-.047.035-.036.166.082.211.114.044.177-.097.06-.152.121-.176.277-.294.355-.346-.013.123-.026.246-.035.369a9.43 9.43 0 0 0-.301.156 2.851 2.851 0 0 0-.454.046c-.028-.077-.172-.053-.133.054.039.11.21.07.153-.011.098-.02.212-.026.319-.022-.066.037-.13.077-.192.116-.034-.087-.123-.04-.127.05-.054.01-.107.02-.164.027.01-.086-.131-.13-.162-.016-.035.135.164.182.149.065.046-.006.11-.016.18-.028l.042.062a.534.534 0 0 0-.09.086c-.063-.082-.216.034-.098.12-.06.001-.086.083-.034.131-.04.031-.064.119-.001.185.075.078.188-.018.107-.109l-.008-.01c.255-.11.545-.184.732-.25a3.621 3.621 0 0 0-.419.493 8.192 8.192 0 0 0-.278.113c-.025-.03-.066-.04-.1-.014-.068-.082-.15.077-.08.167-.043-.016-.104.01-.118.071-.152.026-.175.21-.03.16-.109.121.109.144.156.052l.02.005c-.005.028.007.058.038.08a.065.065 0 0 0-.055.038 2.515 2.515 0 0 0-.116.032c-.023-.1-.242.023-.154.12.065.07.233-.008.188-.087.024-.006.05-.015.075-.02l.045.063c-.186.128.112.206.12.066.247-.054.547-.188.71-.266-.003.09-.01.18-.017.268-.268.15-.546.275-.87.235.06-.091-.11-.098-.14.014-.018.077.089.104.118.025.092.013.185.018.276.013-.18.077-.357.172-.502.208-.024-.036-.109-.061-.177-.008-.06.049-.014.12.053.111a.305.305 0 0 0 .123-.07c.197-.039.461-.147.705-.257.158-.019.3-.053.4-.082l-.007.082c-.215.125-.744.417-1.1.453-.084-.204-.186-.02-.11.074.051.065.123.018.12-.042.333-.034.803-.261 1.05-.392-.217.189-.388.415-.677.482-.089-.199-.184-.015-.11.077.048.06.127.023.12-.038l.077-.02a7.152 7.152 0 0 1-.31.242.136.136 0 0 0-.147.047c-.047.062.017.122.079.096.027-.011.105-.078.107-.111.205-.141.391-.295.603-.427a3.365 3.365 0 0 0-.417.405c-.156.002-.146.2-.027.15.053-.024.158-.116.068-.145.224-.252.526-.466.673-.56.02.201.047.229-.007.436-.082.318-.187.836-.14 1.247-.218.042-.16.355.093.307.288-.056.238-.437.019-.334-.042-.411.07-.932.15-1.233.112.558.206 1.056.218 1.635-.233-.053-.337.255-.085.345.322.112.506-.302.202-.304-.001-.179-.022-.48-.046-.797.095.196.215.388.369.547-.03.016-.067.052-.086.136-.028.147.203.249.349.111-.007.102.135.206.274.134.262-.134.087-.487-.091-.312-.285-.512-.517-1.022-.835-1.519-.122-.188-.082-.461-.072-.674a3.3 3.3 0 0 1 .595.599c-.093.02.004.121.053.15.114.06.14-.137-.013-.152a3.171 3.171 0 0 0-.376-.438c.2.147.371.32.562.475-.003.032.069.107.095.122.056.03.127-.024.088-.09a.134.134 0 0 0-.144-.06 8.781 8.781 0 0 1-.283-.266l.072.026c-.01.06.064.105.119.048.082-.086.003-.277-.103-.086-.283-.091-.432-.333-.628-.538.234.151.678.418 1.006.48-.01.061.06.11.117.053.084-.088.002-.28-.103-.086-.348-.064-.841-.393-1.044-.538l.003-.083c.093.035.23.08.383.113.23.128.482.258.674.315a.299.299 0 0 0 .118.08c.063.016.117-.052.06-.107-.06-.06-.148-.041-.176-.007-.14-.048-.307-.158-.48-.25.091.01.184.015.277.01.022.08.13.064.119-.015-.02-.112-.19-.12-.137-.025-.322.014-.584-.13-.835-.302.002-.091.002-.18.002-.272.158.092.44.249.679.322-.004.074.172.134.174.033.001-.106-.206-.174-.176-.077a3.48 3.48 0 0 1-.644-.308c.312.078.587.15.898.265-.055.076.105.165.177.103.098-.091-.11-.23-.142-.133-.095-.038-.259-.093-.43-.15.114.008.23.006.332-.015.035.088.256.1.161-.038.056.024.126-.002.103-.065-.041-.111-.253-.133-.18-.035-.32-.009-.632-.038-.949-.027.002-.188.002-.376.007-.564.19.075.393.141.497.31-.067-.016-.11.064-.044.101.109.06.221-.064.103-.085l-.04-.082c.083.043.179.069.264.106-.077.082.024.177.104.107.123-.11-.017-.29-.081-.138a18.57 18.57 0 0 0-.34-.176 3.652 3.652 0 0 0-.37-.524c.18.08.461.179.705.31l-.008.01c-.091.083.013.189.095.117.113-.1 0-.278-.071-.158a6.905 6.905 0 0 0-.247-.129.154.154 0 0 0 .151-.075c.023-.045.002-.089-.094-.07l-.02.001a3.306 3.306 0 0 0-.543-.562l.005-.038c.144.08.376.215.565.364l-.005.007c-.086.088.026.186.102.109.106-.105-.018-.277-.08-.154a7.895 7.895 0 0 0-.57-.39c.013-.103.03-.211.05-.324.076.068.184.182.267.329-.123.046-.07.192.047.157.167-.048.16-.3-.012-.175l-.006.003a1.818 1.818 0 0 0-.286-.382c.2-1.152.43-2.03.691-3.17.4.265.648.346.84.317v-.35a.446.446 0 0 1-.277.102c-.135 0-.304-.065-.537-.233.14-.89.462-1.349.008-2.247.063.09.429.29.805.534v-.276c-.16-.123-.318-.269-.584-.611.166.15.365.319.584.474v-.28a4.357 4.357 0 0 1-.155-.128c.05.022.101.045.155.067V.019h-2.055c-.104.292.04.364.115.516.033.071.02.164.015.24-.165-.15-.32-.387-.396-.756h-.242c.025.242.1.363.036.384a.035.035 0 0 1-.04-.015 2.636 2.636 0 0 1-.14-.37h-.327c.043.246.12.506.25.768.015.03-.032.057-.055.031a4.547 4.547 0 0 1-.543-.798h-.25c.114.287.26.578.446.846.017.025-.014.056-.042.042-.179-.088-.576-.327-1.09-.888h-.292c.163.217.344.425.542.606.025.024-.006.066-.039.046-.304-.177-.704-.416-1.12-.652h-.47c.583.445 1.124.92 1.772 1.252.029.015.014.06-.02.056-1.559-.175-2.838-1.395-4.505-.842a.03.03 0 0 0 .014.058c2.291-.357 2.865.865 3.997 1.11.032.007.03.054-.004.059-.86.116-2.621.039-3.207.77a.605.605 0 0 1-.184-.324c-.169-.717-.625-.9-.883-1.356-.17-.3-.071-.565.143-.783h-.578c-.186.305-.08.639.091.946z"/></g><g><path fill="#2b2a29" d="M57.17 19.656v.001l.04.084c.051-.074.11-.155.17-.24l-.045.004a8.213 8.213 0 0 0-.165.151z"/></g><g><path fill="url(#pez7F)" d="M55.775 20.557h-.018a.53.53 0 0 0-.263.085l-.004.006c.082.039.163.071.243.097.102-.048.2-.098.3-.147-.11-.022-.186-.04-.258-.041z"/></g><g><path fill="url(#pez7G)" d="M55.26 20.829c.026.016.047.042.038.078.101-.04.2-.08.298-.122a2.062 2.062 0 0 1-.171-.068c-.008.033-.09.118-.165.112z"/></g><g><path fill="url(#pez7H)" d="M57.82 23.153c.082.012.162.02.236.033-.014-.066-.027-.13-.042-.188-.058.044-.123.097-.194.155z"/></g><g><path fill="#fefefe" d="M47.52 28.93l5.564-9.08 12.038 19.74H54.054z"/></g><g><path fill="#2b2a29" d="M47.24 29.078l-.09-.147 5.928-9.675 12.584 20.631H53.866zm6.985 10.216h10.338l-11.489-18.85-5.197 8.487z"/></g><g><path fill="#2b2a29" d="M32.7 29.858l.264-.443.096-.159h13.434l4.167 6.802-10.568.004 3.785-6.204zm16.87 5.607l-3.44-5.616h-1.52l-3.427 5.62z"/></g><g><path fill="#a42522" d="M49.97 44.893l-3.66 5.972H33.241l-.912-1.487 2.731-4.478z"/></g><g><path fill="#2b2a29" d="M31.97 49.38l2.912-4.774 15.092-.006h.545l-4.023 6.567H33.064zm.728 0l.73 1.193H46.13l3.297-5.38-14.181.006z"/></g><g><path fill="#fefefe" d="M31.995 31.581l1.24-2.023h11.182l-3.783 6.204 9.48-.006 2.728 4.454-2.873 4.687-14.91.006-2.731 4.478-5.608-9.15z"/></g><g><path fill="#2b2a29" d="M31.714 31.428l1.331-2.172h11.91l-3.784 6.204 9.115-.004 2.911 4.75-3.055 4.984-14.909.008-2.912 4.775-5.971-9.746zm.606 17.354l2.549-4.178 14.909-.008 2.691-4.39-2.546-4.156-9.841.004 3.784-6.203H33.409l-1.147 1.873-5.186 8.503z"/></g><g><path fill="#fefefe" d="M52.482 18.266l-6.116 9.98H33.98l6.11-9.98z"/></g><g><path fill="#2b2a29" d="M39.904 17.975l12.573-.001h.546l-6.481 10.573H33.43zm-5.383 9.98h11.658l5.752-9.386H40.268z"/></g><g><path fill="#fefefe" d="M53.98 40.877h12.342l-6.106 9.988H47.87z"/></g><g><path fill="#2b2a29" d="M47.33 51.168l6.382-10.434.091-.149h13.07l-6.47 10.583zm1.09-.593h11.62l5.743-9.395H54.167z"/></g></g></svg>