<svg xmlns="http://www.w3.org/2000/svg" width="189" height="146" viewBox="0 0 189 146"><g><g clip-path="url(#clip-57E874D4-876D-47B0-BDA1-F2A3FDBFB170)" opacity=".71" transform="rotate(-19 94.5 91)"><path fill="#ff9067" d="M58.916 53.756c0-4.742-.876-8.505-2.629-11.29-1.752-2.783-4.244-4.175-7.474-4.175-3.575 0-6.324 1.46-8.248 4.382-1.925 2.921-2.887 6.89-2.887 11.908 0 4.743.876 8.454 2.629 11.135 1.753 2.68 4.382 4.02 7.887 4.02 3.437 0 6.083-1.374 7.939-4.123 1.856-2.75 2.783-6.702 2.783-11.857zm27.116-1.134c0 12.235-3.557 21.943-10.671 29.126-7.114 7.183-16.582 10.774-28.404 10.774-11.135 0-20.053-3.402-26.755-10.207C13.501 75.51 10.15 66.541 10.15 55.406c0-12.097 3.488-21.806 10.465-29.126 6.976-7.32 16.513-10.98 28.61-10.98 11.41 0 20.397 3.334 26.96 10 6.565 6.668 9.847 15.775 9.847 27.322zm-22.68 112.586H30.873L125.94 17.362h32.48zm88.355-36.503c0-4.878-.928-8.709-2.784-11.492-1.856-2.783-4.4-4.174-7.63-4.174-3.574 0-6.323 1.46-8.248 4.38-1.924 2.92-2.886 6.889-2.886 11.905 0 4.74.876 8.451 2.629 11.131 1.752 2.68 4.381 4.02 7.887 4.02 3.574 0 6.306-1.375 8.196-4.123 1.89-2.749 2.836-6.63 2.836-11.647zm27.012-1.335c0 12.028-3.54 21.685-10.62 28.971-7.08 7.286-16.633 10.929-28.661 10.929-11.135 0-20.053-3.403-26.755-10.207-6.701-6.805-10.052-15.774-10.052-26.91 0-12.234 3.574-21.942 10.722-29.125 7.149-7.183 16.668-10.774 28.56-10.774 11.409 0 20.396 3.265 26.96 9.794 6.564 6.53 9.846 15.637 9.846 27.322z"/></g></g></svg>