<svg xmlns="http://www.w3.org/2000/svg" width="84" height="90" viewBox="0 0 84 90"><defs><mask id="1xdyb" width="2" height="2" x="-1" y="-1"><path fill="#fff" d="M11-6h71v75H11z"/><path d="M31.81 16.04c0-1.941-.359-3.481-1.076-4.62-.717-1.14-1.737-1.71-3.06-1.71-1.462 0-2.588.598-3.375 1.794-.788 1.195-1.182 2.82-1.182 4.874 0 1.94.359 3.46 1.076 4.557.718 1.097 1.794 1.646 3.228 1.646 1.407 0 2.49-.563 3.25-1.688.76-1.125 1.14-2.743 1.14-4.853zm11.098-.464c0 5.008-1.455 8.981-4.367 11.921-2.912 2.94-6.787 4.41-11.626 4.41-4.558 0-8.208-1.393-10.95-4.178-2.744-2.785-4.115-6.456-4.115-11.014 0-4.951 1.428-8.925 4.283-11.92C18.99 1.797 22.892.3 27.843.3c4.67 0 8.349 1.364 11.035 4.093 2.687 2.73 4.03 6.457 4.03 11.183zm-9.283 46.091H20.332L59.239 1.144h13.293zm36.164-14.943c0-2-.38-3.569-1.14-4.71-.759-1.14-1.8-1.71-3.122-1.71-1.463 0-2.588.599-3.376 1.795-.788 1.197-1.182 2.823-1.182 4.878 0 1.943.36 3.463 1.077 4.561.717 1.098 1.793 1.647 3.228 1.647 1.463 0 2.58-.563 3.355-1.69.773-1.125 1.16-2.716 1.16-4.771zm11.066-.554c0 4.923-1.45 8.876-4.348 11.858-2.898 2.982-6.81 4.473-11.735 4.473-4.559 0-8.21-1.392-10.954-4.178-2.744-2.785-4.116-6.456-4.116-11.013 0-5.008 1.464-8.982 4.39-11.922 2.927-2.94 6.825-4.41 11.693-4.41 4.672 0 8.351 1.337 11.039 4.01 2.687 2.672 4.031 6.4 4.031 11.182z"/></mask><filter id="1xdya" width="119" height="135" x="-13" y="-30" filterUnits="userSpaceOnUse"><feOffset dy="12" in="SourceGraphic" result="FeOffset1041Out"/><feGaussianBlur in="FeOffset1041Out" result="FeGaussianBlur1042Out" stdDeviation="5.6 5.6"/></filter></defs><g><g clip-path="url(#clip-57E874D4-876D-47B0-BDA1-F2A3FDBFB170)" transform="rotate(21 46.5 31.5)"><g filter="url(#1xdya)"><path fill="none" d="M31.81 16.04c0-1.941-.359-3.481-1.076-4.62-.717-1.14-1.737-1.71-3.06-1.71-1.462 0-2.588.598-3.375 1.794-.788 1.195-1.182 2.82-1.182 4.874 0 1.94.359 3.46 1.076 4.557.718 1.097 1.794 1.646 3.228 1.646 1.407 0 2.49-.563 3.25-1.688.76-1.125 1.14-2.743 1.14-4.853zm11.098-.464c0 5.008-1.455 8.981-4.367 11.921-2.912 2.94-6.787 4.41-11.626 4.41-4.558 0-8.208-1.393-10.95-4.178-2.744-2.785-4.115-6.456-4.115-11.014 0-4.951 1.428-8.925 4.283-11.92C18.99 1.797 22.892.3 27.843.3c4.67 0 8.349 1.364 11.035 4.093 2.687 2.73 4.03 6.457 4.03 11.183zm-9.283 46.091H20.332L59.239 1.144h13.293zm36.164-14.943c0-2-.38-3.569-1.14-4.71-.759-1.14-1.8-1.71-3.122-1.71-1.463 0-2.588.599-3.376 1.795-.788 1.197-1.182 2.823-1.182 4.878 0 1.943.36 3.463 1.077 4.561.717 1.098 1.793 1.647 3.228 1.647 1.463 0 2.58-.563 3.355-1.69.773-1.125 1.16-2.716 1.16-4.771zm11.066-.554c0 4.923-1.45 8.876-4.348 11.858-2.898 2.982-6.81 4.473-11.735 4.473-4.559 0-8.21-1.392-10.954-4.178-2.744-2.785-4.116-6.456-4.116-11.013 0-5.008 1.464-8.982 4.39-11.922 2.927-2.94 6.825-4.41 11.693-4.41 4.672 0 8.351 1.337 11.039 4.01 2.687 2.672 4.031 6.4 4.031 11.182z" mask="url(&quot;#1xdyb&quot;)"/><path fill-opacity=".09" d="M31.81 16.04c0-1.941-.359-3.481-1.076-4.62-.717-1.14-1.737-1.71-3.06-1.71-1.462 0-2.588.598-3.375 1.794-.788 1.195-1.182 2.82-1.182 4.874 0 1.94.359 3.46 1.076 4.557.718 1.097 1.794 1.646 3.228 1.646 1.407 0 2.49-.563 3.25-1.688.76-1.125 1.14-2.743 1.14-4.853zm11.098-.464c0 5.008-1.455 8.981-4.367 11.921-2.912 2.94-6.787 4.41-11.626 4.41-4.558 0-8.208-1.393-10.95-4.178-2.744-2.785-4.115-6.456-4.115-11.014 0-4.951 1.428-8.925 4.283-11.92C18.99 1.797 22.892.3 27.843.3c4.67 0 8.349 1.364 11.035 4.093 2.687 2.73 4.03 6.457 4.03 11.183zm-9.283 46.091H20.332L59.239 1.144h13.293zm36.164-14.943c0-2-.38-3.569-1.14-4.71-.759-1.14-1.8-1.71-3.122-1.71-1.463 0-2.588.599-3.376 1.795-.788 1.197-1.182 2.823-1.182 4.878 0 1.943.36 3.463 1.077 4.561.717 1.098 1.793 1.647 3.228 1.647 1.463 0 2.58-.563 3.355-1.69.773-1.125 1.16-2.716 1.16-4.771zm11.066-.554c0 4.923-1.45 8.876-4.348 11.858-2.898 2.982-6.81 4.473-11.735 4.473-4.559 0-8.21-1.392-10.954-4.178-2.744-2.785-4.116-6.456-4.116-11.013 0-5.008 1.464-8.982 4.39-11.922 2.927-2.94 6.825-4.41 11.693-4.41 4.672 0 8.351 1.337 11.039 4.01 2.687 2.672 4.031 6.4 4.031 11.182z"/></g><path fill="#8a1a1f" d="M31.81 16.04c0-1.941-.359-3.481-1.076-4.62-.717-1.14-1.737-1.71-3.06-1.71-1.462 0-2.588.598-3.375 1.794-.788 1.195-1.182 2.82-1.182 4.874 0 1.94.359 3.46 1.076 4.557.718 1.097 1.794 1.646 3.228 1.646 1.407 0 2.49-.563 3.25-1.688.76-1.125 1.14-2.743 1.14-4.853zm11.098-.464c0 5.008-1.455 8.981-4.367 11.921-2.912 2.94-6.787 4.41-11.626 4.41-4.558 0-8.208-1.393-10.95-4.178-2.744-2.785-4.115-6.456-4.115-11.014 0-4.951 1.428-8.925 4.283-11.92C18.99 1.797 22.892.3 27.843.3c4.67 0 8.349 1.364 11.035 4.093 2.687 2.73 4.03 6.457 4.03 11.183zm-9.283 46.091H20.332L59.239 1.144h13.293zm36.164-14.943c0-2-.38-3.569-1.14-4.71-.759-1.14-1.8-1.71-3.122-1.71-1.463 0-2.588.599-3.376 1.795-.788 1.197-1.182 2.823-1.182 4.878 0 1.943.36 3.463 1.077 4.561.717 1.098 1.793 1.647 3.228 1.647 1.463 0 2.58-.563 3.355-1.69.773-1.125 1.16-2.716 1.16-4.771zm11.066-.554c0 4.923-1.45 8.876-4.348 11.858-2.898 2.982-6.81 4.473-11.735 4.473-4.559 0-8.21-1.392-10.954-4.178-2.744-2.785-4.116-6.456-4.116-11.013 0-5.008 1.464-8.982 4.39-11.922 2.927-2.94 6.825-4.41 11.693-4.41 4.672 0 8.351 1.337 11.039 4.01 2.687 2.672 4.031 6.4 4.031 11.182z"/></g></g></svg>